<svg xmlns="http://www.w3.org/2000/svg" viewBox="0 0 450 307.69"><defs><style>.a{fill:#002b3a;}.b{fill:#388c9e;}.c{fill:#b1e1ea;}.d{fill:#207a8d;}</style></defs><path class="a" d="M324.61,65.87a8.12,8.12,0,0,1-1.73,4.41l-76.66,95.31c-2.19,2.77-7.46,2.95-10,.52a2.57,2.57,0,0,1-.47-.52c-4.5-7.33-14.91-31-14.91-31H162.35c-3.84,0-8,0-9.86-2a6.07,6.07,0,0,1-1.74-4.08c0-1.27,1.48-3.94,2.45-5.16l11.86-14.53,68.6,0c4.13,0,8.51-.92,10.87-3.81l37.43-46L282,59c17.62,0,31.68,0,31.68,0,3.87,0,7.34.78,9.18,2.79A6,6,0,0,1,324.61,65.87Z"/><path class="b" d="M282,59l-.06.08-37.43,46c-2.36,2.89-6.74,3.81-10.87,3.81l-68.6,0,.06-.08,37.43-46c2.36-2.89,6.74-3.81,10.86-3.81Z"/><path class="c" d="M296.33,39.29c0,1.28-1.48,4-2.46,5.16L282,59l-68.61,0c-4.12,0-8.5.92-10.86,3.81l-37.43,46-.06.08-31.69,0c-3.88,0-7.33-.78-9.17-2.79a6,6,0,0,1-1.73-4.09,8.15,8.15,0,0,1,1.73-4.4L200.86,2.22c2.19-2.77,7.45-2.95,10-.52a3,3,0,0,1,.48.52c4.49,7.33,14.89,31,14.89,31h58.46c3.84,0,8,0,9.86,2A6.12,6.12,0,0,1,296.33,39.29Z"/><path class="a" d="M0,173.49H21.14a42.69,42.69,0,0,1,8.47.82,21.54,21.54,0,0,1,7.26,2.79,14.66,14.66,0,0,1,5.07,5.33,17.15,17.15,0,0,1,1.89,8.51A16.94,16.94,0,0,1,40.18,202q-3.66,4.48-10.44,5.42l16.15,26.9H32.83L18.74,208.56H10.83v25.78H0Zm19.25,25.78c1.55,0,3.1-.07,4.64-.21a14.31,14.31,0,0,0,4.26-1,7.31,7.31,0,0,0,3.13-2.49,7.88,7.88,0,0,0,1.21-4.69,7.48,7.48,0,0,0-1.12-4.29,7,7,0,0,0-2.92-2.45,13.32,13.32,0,0,0-4-1.08,36.83,36.83,0,0,0-4.25-.26H10.83v16.5Z"/><path class="a" d="M60.59,173.49H100.9v9.8H71.42v15H99.35V208H71.42v16.5h31v9.8H60.59Z"/><path class="a" d="M139.23,173.49h9.37l26.21,60.85H162.43l-5.67-13.92H130.38l-5.5,13.92H112.76ZM153,211.14l-9.37-24.76-9.54,24.76Z"/><path class="a" d="M188,173.49h10.83v51h25.87v9.8H188Z"/><path class="a" d="M271,173.49h10.83v51h25.87v9.8H271Z"/><path class="a" d="M321.77,173.49H332.6v60.85H321.77Z"/><path class="a" d="M352.37,173.49h39.27v9.8H363.2v16H390v9.8H363.2v25.27H352.37Z"/><path class="a" d="M408.14,173.49h40.31v9.8H419v15h27.94V208H419v16.5h31v9.8H408.14Z"/><path class="d" d="M70.85,267.82l.22,0,1.33-.28,1.07-.24a.11.11,0,0,0,.08,0,2.73,2.73,0,0,1,.38,0,.31.31,0,0,1,.28.18c.07.15,0,.25-.07.32a.77.77,0,0,1-.37.12l-.87.2c-.76.19-1.51.34-2.27.47a10.75,10.75,0,0,1-2.35.11,1.53,1.53,0,0,0-1.39.49,12.83,12.83,0,0,1-3.15,2.57l-.1.06a3.22,3.22,0,0,1-.86.4,1.35,1.35,0,0,1-1-.12.8.8,0,0,1-.46-.6,1.83,1.83,0,0,1,.07-.69c0-.12,0-.24.06-.34a3,3,0,0,1,.08-.48,2,2,0,0,0,.05-.24.62.62,0,0,0-.33.08.7.7,0,0,0-.2.18l-.1.1c-.19.17-.37.35-.56.54A11.34,11.34,0,0,1,58.75,272l0,0a1.68,1.68,0,0,1-.42.22.65.65,0,0,1-.5-.06.61.61,0,0,1-.36-.39.71.71,0,0,1,0-.47,18.65,18.65,0,0,1,2.42-4.47.41.41,0,0,1,.18-.19.3.3,0,0,1,.28,0c.15.05.22.12.21.22a.52.52,0,0,1-.11.27,28.93,28.93,0,0,0-1.75,3.05l-.1.2a1.76,1.76,0,0,0-.28.93,2.29,2.29,0,0,0,.94-.63l.14-.14,1.43-1.4.75-.73a5.23,5.23,0,0,1,.54-.5.64.64,0,0,1,.29-.16.45.45,0,0,1,.35.06A.39.39,0,0,1,63,268a.45.45,0,0,1,0,.28c-.09.26-.18.52-.26.77-.19.49-.35,1-.5,1.48l-.06.12a1.6,1.6,0,0,0-.09.41.42.42,0,0,0,.23.36.56.56,0,0,0,.42,0,1.41,1.41,0,0,0,.4-.21l.14-.08a14.25,14.25,0,0,0,3.22-2.62.73.73,0,0,0,.2-.33.42.42,0,0,0-.12-.37.83.83,0,0,1-.14-.68.69.69,0,0,1,.37-.45,1.18,1.18,0,0,1,.69-.14.71.71,0,0,1,.52.25.69.69,0,0,1,.11.46c0,.14,0,.28,0,.42a1.66,1.66,0,0,0,0,.24A7.34,7.34,0,0,0,70.85,267.82Z"/><path class="d" d="M58.13,272.59a1.16,1.16,0,0,1-.49-.13.91.91,0,0,1-.54-.62,1.11,1.11,0,0,1,.06-.67,19.49,19.49,0,0,1,2.47-4.54.69.69,0,0,1,.28-.29.66.66,0,0,1,.57,0,.55.55,0,0,1,.43.56.86.86,0,0,1-.17.45,27.11,27.11,0,0,0-1.73,3,1.12,1.12,0,0,1-.11.22l0,.06a.67.67,0,0,0,.14-.15l.17-.16c.49-.47,1-.93,1.43-1.4l.76-.74a4.66,4.66,0,0,1,.56-.51.9.9,0,0,1,.42-.23.87.87,0,0,1,.59.09.74.74,0,0,1,.38.47.8.8,0,0,1-.05.48l-.25.75c-.19.49-.35,1-.49,1.46l-.05.09a1.14,1.14,0,0,0-.09.37l0,0a.36.36,0,0,0,.16,0,1.15,1.15,0,0,0,.31-.16l.18-.11a13.91,13.91,0,0,0,3.13-2.55.4.4,0,0,0,.12-.18l0-.08a1.17,1.17,0,0,1-.21-1,1.07,1.07,0,0,1,.53-.68,1.55,1.55,0,0,1,.87-.18,1.1,1.1,0,0,1,.79.39,1.05,1.05,0,0,1,.17.69l0,.33a6.8,6.8,0,0,0,2.37-.17l.24,0,1.33-.28,1.16-.26c.42-.08.82-.05,1,.31a.56.56,0,0,1-.2.77,1.24,1.24,0,0,1-.5.17l-.84.19c-.75.18-1.52.34-2.29.47a10.19,10.19,0,0,1-2.42.11,1.24,1.24,0,0,0-1.12.38A12.9,12.9,0,0,1,63.91,272l-.08.05a3.5,3.5,0,0,1-1,.44,1.63,1.63,0,0,1-1.23-.14,1.14,1.14,0,0,1-.65-.87,2.34,2.34,0,0,1,.08-.82,2.74,2.74,0,0,0,0-.28v0l-.48.48A11,11,0,0,1,59,272.22l0,0a2.35,2.35,0,0,1-.53.29A.92.92,0,0,1,58.13,272.59Zm0-1.93c-.11.25-.21.51-.31.76a.47.47,0,0,0,0,.28s.06.09.18.16a.38.38,0,0,0,.24,0,1.06,1.06,0,0,0,.33-.18,7,7,0,0,0,.59-.44,3,3,0,0,1-.65.34l-.48.18,0-.51A2.51,2.51,0,0,1,58.1,270.66Zm3.49-1.35H62l-.06.4c0,.09,0,.19-.07.29a2.57,2.57,0,0,0-.07.4,2.5,2.5,0,0,1-.06.38,1.79,1.79,0,0,0-.07.59c0,.14.17.26.31.34a1.48,1.48,0,0,0,.27.1l-.08,0-.08,0a.74.74,0,0,1-.38-.65,2,2,0,0,1,.11-.52l.07-.14c.15-.49.31-1,.49-1.46.08-.23.16-.5.26-.76a.27.27,0,0,0,0-.1c-.11-.05-.14,0-.15,0a.24.24,0,0,0-.13.07,5.19,5.19,0,0,0-.53.49l-.76.74c-.47.47-.95.94-1.44,1.4l-.13.13a1.14,1.14,0,0,1-.15.16,9.56,9.56,0,0,0,.8-.75l.57-.55.06-.06a1.35,1.35,0,0,1,.28-.25A.94.94,0,0,1,61.59,269.31Zm1.87,2.13-.06,0-.13.07,0,0,.21-.12Zm3.89-4.52a.91.91,0,0,0-.43.1.38.38,0,0,0-.2.25.51.51,0,0,0,.09.4.76.76,0,0,1,.17.64,1,1,0,0,1-.29.49,14.7,14.7,0,0,1-3.13,2.58l0,0a12.39,12.39,0,0,0,3-2.49,1.78,1.78,0,0,1,1.14-.6h-.09V268a1.42,1.42,0,0,1,0-.31l0-.38a.36.36,0,0,0-.06-.24s-.1-.08-.29-.11Zm-7.91,1.19a21.3,21.3,0,0,0-1.16,2.15l0-.08.07-.14C58.72,269.38,59.07,268.74,59.44,268.11Z"/><path class="d" d="M72,270.37a8.76,8.76,0,0,1,1.63-3.05A1.26,1.26,0,0,1,74,267a.46.46,0,0,1,.54.06.68.68,0,0,1,.12.24.2.2,0,0,1-.12.2,3.43,3.43,0,0,0-1.15,1.23,11.89,11.89,0,0,0-.63,1.46.89.89,0,0,1-.06.2c-.34,1,.14,1.42,1.44,1.33a8.41,8.41,0,0,0,2.25-.54,42.47,42.47,0,0,0,5-2.4,2.26,2.26,0,0,1,.26-.14l.74-.4c.45-.25.9-.5,1.37-.74l.08,0a.79.79,0,0,1,.31-.13.36.36,0,0,1,.33.15c.07.11.09.2,0,.28a.57.57,0,0,1-.23.2l-1.68.91q-1.53.88-3.12,1.68a28,28,0,0,1-3.32,1.39,6.92,6.92,0,0,1-2.29.38Q71.51,272.23,72,270.37Zm3.6-5.8a.18.18,0,0,1-.06-.13,1,1,0,0,1,.47-.78,1.57,1.57,0,0,1,1-.3l.16.06a.5.5,0,0,1,.14.1.15.15,0,0,1,0,.19.25.25,0,0,1-.18.11,1.37,1.37,0,0,0-1,.68.34.34,0,0,1-.4.14A.48.48,0,0,1,75.59,264.57Z"/><path class="d" d="M73.88,272.66a2.52,2.52,0,0,1-2-.77,1.83,1.83,0,0,1-.2-1.61h0a9.34,9.34,0,0,1,1.7-3.16,1.47,1.47,0,0,1,.51-.41.75.75,0,0,1,.9.11.88.88,0,0,1,.24.44.54.54,0,0,1-.29.55,3,3,0,0,0-1,1.08,10.47,10.47,0,0,0-.61,1.42.87.87,0,0,1-.06.21c-.07.21-.14.5,0,.66s.33.27,1.11.21a8,8,0,0,0,2.15-.51,41.89,41.89,0,0,0,5-2.39l.28-.15.72-.39,1.38-.74.09,0a.93.93,0,0,1,.4-.16.67.67,0,0,1,.64.26.58.58,0,0,1,.07.69,1,1,0,0,1-.37.31l-1.66.91c-1,.58-2.07,1.15-3.14,1.68a28.64,28.64,0,0,1-3.36,1.41A7.32,7.32,0,0,1,73.88,272.66Zm-1.57-2.2a1.21,1.21,0,0,0,.09,1l.06.07a1.35,1.35,0,0,1,0-1.27,1.24,1.24,0,0,0,0-.16c.11-.31.22-.6.34-.88A8.59,8.59,0,0,0,72.31,270.46Zm7-.21-1,.46Zm2.53-1.34,0,0-.25.13-.35.19C81.44,269.15,81.65,269,81.86,268.91Zm-7.6-1.64-.07,0a.84.84,0,0,0-.31.23l-.18.24a3.57,3.57,0,0,1,.59-.49ZM75.87,265l-.19,0a.8.8,0,0,1-.31-.14.53.53,0,0,1-.18-.39,1.28,1.28,0,0,1,.61-1.05,1.84,1.84,0,0,1,1.25-.36.77.77,0,0,1,.28.09,1,1,0,0,1,.23.16.5.5,0,0,1,.06.62.54.54,0,0,1-.4.25,1.08,1.08,0,0,0-.78.51A.63.63,0,0,1,75.87,265Zm.16-.91a.58.58,0,0,0-.13.19A1.27,1.27,0,0,1,76,264.08Z"/><path class="d" d="M93.52,259.92q.86,0,1.68,0a4.89,4.89,0,0,0,1.62-.37.37.37,0,0,1,.42.12.29.29,0,0,1,0,.36.81.81,0,0,1-.46.31,2.7,2.7,0,0,1-.58.09c-.83.06-1.67.1-2.5.1a15.84,15.84,0,0,0-1.8.07,1.77,1.77,0,0,0-1,.41,9.36,9.36,0,0,0-1.06,1.09,61.38,61.38,0,0,1-4.48,4.66,2.75,2.75,0,0,0-.48.55,23.58,23.58,0,0,0-2,4.1,3,3,0,0,0-.18,1.45c.11.51.45.68,1,.52a4.79,4.79,0,0,0,1.55-.77l0,0a25.6,25.6,0,0,0,2.75-2.15l.17-.18,1.3-1.1L91,267.86l.1-.08c.15-.13.31-.26.48-.38a.83.83,0,0,1,.37-.17.41.41,0,0,1,.36.15c.08.1.1.18,0,.25a.69.69,0,0,1-.21.21l0,0c-.35.28-.69.56-1,.86l-.28.23-1.21,1c-.89.77-1.79,1.53-2.69,2.27a8.93,8.93,0,0,1-2.51,1.55c-1.53.53-2.35.09-2.44-1.33a5.17,5.17,0,0,1,.51-2.07,30.26,30.26,0,0,1,2.26-4.29c.87-1.37,1.8-2.72,2.8-4l.64-.84.25-.33q-.08-.27-.27-.24c-2.72,0-5.44.1-8.14.34h0a5.74,5.74,0,0,0-.62.1,1.23,1.23,0,0,0-.52.27.33.33,0,0,1-.24.14.31.31,0,0,1-.27-.1.34.34,0,0,1,0-.53,2.19,2.19,0,0,1,1.08-.38c.66-.1,1.33-.16,2-.2q3.41-.17,6.82-.24a1.68,1.68,0,0,0,1.38-.58c.53-.63,1.14-1.34,1.83-2.11a21.54,21.54,0,0,1,2-2l.1-.1a3,3,0,0,1,.89-.57.61.61,0,0,1,.58.06.32.32,0,0,1,.12.43,4.07,4.07,0,0,1-.42.8l-1,1.29c-.39.49-.75,1-1.1,1.42l-.4.51-.06.06a1.76,1.76,0,0,0-.14.23.82.82,0,0,0-.07.39C92.48,259.91,93,259.91,93.52,259.92Zm-5.24,2.65a4.88,4.88,0,0,0,1.54-1.83A3.84,3.84,0,0,0,88.28,262.57Zm3.44-3.84a6.78,6.78,0,0,0,.86-1.32,7.69,7.69,0,0,0-1.17,1.14,6,6,0,0,0-.88,1.29A4.85,4.85,0,0,0,91.72,258.73Z"/><path class="d" d="M83.3,274.37a1.66,1.66,0,0,1-.93-.26,2,2,0,0,1-.75-1.61,5.52,5.52,0,0,1,.55-2.24,29.75,29.75,0,0,1,2.28-4.32c.86-1.37,1.81-2.73,2.81-4.05.23-.3.44-.57.63-.84l0,0h-.1c-2.62,0-5.23.12-7.78.34l-.59.1a.87.87,0,0,0-.37.19.69.69,0,0,1-.42.23.67.67,0,0,1-.54-.18.69.69,0,0,1,0-1,2.59,2.59,0,0,1,1.28-.47c.65-.09,1.34-.16,2-.2,2.25-.1,4.55-.18,6.84-.24a1.38,1.38,0,0,0,1.12-.45c.53-.64,1.14-1.35,1.84-2.12a19.88,19.88,0,0,1,2-2l0,0a3.28,3.28,0,0,1,1-.68.92.92,0,0,1,.88.08.68.68,0,0,1,.25.88,3.71,3.71,0,0,1-.44.83l-1,1.31c-.38.49-.75,1-1.09,1.41-.15.19-.28.36-.39.52l-.1.09v0h1.12a15.1,15.1,0,0,0,1.65,0,4.84,4.84,0,0,0,1.52-.34.7.7,0,0,1,.8.22.61.61,0,0,1,0,.74,1.17,1.17,0,0,1-.67.47,4.14,4.14,0,0,1-.63.1c-.85.06-1.7.1-2.53.1s-1.39,0-1.76.06a1.49,1.49,0,0,0-.82.34,9.41,9.41,0,0,0-1,1.05,58.3,58.3,0,0,1-4.5,4.68,3.27,3.27,0,0,0-.43.5,23.85,23.85,0,0,0-2,4,2.47,2.47,0,0,0-.16,1.29.34.34,0,0,0,.14.24.66.66,0,0,0,.47,0,4.38,4.38,0,0,0,1.43-.72l.12-.07a24.61,24.61,0,0,0,2.65-2.08L88,270l1.5-1.28,1.34-1.18a5.53,5.53,0,0,1,.52-.41,1.13,1.13,0,0,1,.5-.22.72.72,0,0,1,.66.24.53.53,0,0,1,.1.67,1.24,1.24,0,0,1-.3.31l-.09.06c-.34.27-.64.53-.94.79l-.28.24-1.21,1c-.89.77-1.79,1.52-2.69,2.27a9.32,9.32,0,0,1-2.6,1.6A3.89,3.89,0,0,1,83.3,274.37Zm5.16-14a.71.71,0,0,1,.29.41l0,.16-.37.48-.63.84c-1,1.3-1.93,2.65-2.78,4a30.14,30.14,0,0,0-2.24,4.24,5,5,0,0,0-.49,1.95,1.38,1.38,0,0,0,.44,1.05,1.14,1.14,0,0,1-.35-.64,3.13,3.13,0,0,1,.2-1.64,24.23,24.23,0,0,1,2-4.16,3.94,3.94,0,0,1,.54-.62,60.58,60.58,0,0,0,4.45-4.63,10.25,10.25,0,0,1,1.11-1.14,2.25,2.25,0,0,1,.92-.44v-.33a1.1,1.1,0,0,1,.11-.55,1.34,1.34,0,0,1,.18-.28L92,259c.08-.13.22-.3.37-.49.34-.45.7-.92,1.09-1.41l1-1.3a3.15,3.15,0,0,0,.36-.71c-.11-.1-.18-.09-.24-.06a2.61,2.61,0,0,0-.8.51l-.09.09a20.19,20.19,0,0,0-2,2c-.69.77-1.3,1.47-1.82,2.1A1.94,1.94,0,0,1,88.46,260.41Zm-3,12.49-.17.11a8.9,8.9,0,0,0,1.41-1l-1.15.82Zm4.15-3.35-1.2,1,1-.85Zm2.3-1.95a.34.34,0,0,0-.11.07,3.69,3.69,0,0,0-.46.36.58.58,0,0,1-.15.11l-1.31,1.18.73-.62.28-.24c.33-.29.67-.58,1-.86Zm-13.24-6.48-.08.05v0l.07-.06Zm9.51-.11h0Zm8.73-1.11-.52.15.35-.07A.53.53,0,0,0,96.89,259.9Zm-9.35,3.63.43-1.09a4.3,4.3,0,0,1,1.66-2l.37-.23.22-.52a6,6,0,0,1,.93-1.37,8.4,8.4,0,0,1,1.23-1.19l1.11-.83-.6,1.25a7.53,7.53,0,0,1-.91,1.38,5.16,5.16,0,0,1-1.27,1.19l-.34.21-.25.54a5,5,0,0,1-1.64,2Z"/><path class="d" d="M91.63,267.3a2.61,2.61,0,0,1,.42-.36,2,2,0,0,0,.64-.63,41.74,41.74,0,0,1,4.11-6.21,62,62,0,0,1,5-5.53,20.3,20.3,0,0,1,1.83-1.55,3.5,3.5,0,0,1,1.06-.56c.73-.19,1,.1,1,.87a3.3,3.3,0,0,1-.45,1.12,21.53,21.53,0,0,1-2.37,3.18c-1.43,1.66-2.91,3.27-4.42,4.84a50.77,50.77,0,0,1-4.85,4.4,2.57,2.57,0,0,0-.78.91l-.08.18c-.32.7-.66,1.39-1,2.05-.21.38-.41.78-.61,1.17a1.52,1.52,0,0,0-.25.68c0,.09.1.1.23,0a3,3,0,0,0,.45-.32l.42-.37c.39-.35.77-.71,1.14-1.07.54-.52,1.09-1,1.65-1.55a7.31,7.31,0,0,1,2-1.34,2.51,2.51,0,0,1,.67-.22.86.86,0,0,1,.68.2.91.91,0,0,1,.38.61,2.29,2.29,0,0,1,0,.73c0,.13-.05.26-.08.39-.08.42-.16.82-.24,1.22a2,2,0,0,1,0,.24c-.06.3-.12.61-.16.93-.09.73.22,1,.92.8a7.39,7.39,0,0,0,2.21-1.06c1-.65,2-1.3,3-2l1.55-1,.18-.12a2.23,2.23,0,0,1,.86-.42.35.35,0,0,1,.32.12.3.3,0,0,1,0,.44,3.32,3.32,0,0,1-.36.26v0l-1.17.75c-1.42.95-2.85,1.87-4.28,2.79a7.64,7.64,0,0,1-2,.93c-1.38.35-2-.19-1.93-1.63a12.48,12.48,0,0,1,.34-1.87c0-.06,0-.14,0-.22.15-.7.13-1.11,0-1.23s-.46-.07-.81.16a11.53,11.53,0,0,0-1.07.78l-.09.07A27.72,27.72,0,0,0,93,271.22q-.37.4-.78.78a.17.17,0,0,1-.06.06,4.5,4.5,0,0,1-1.21.93c-.66.28-1,.06-1-.65a1.9,1.9,0,0,1,.14-.7,14.2,14.2,0,0,1,.88-1.79c.14-.28.29-.56.44-.84a1.93,1.93,0,0,0,.22-.62,2.19,2.19,0,0,0-.06-.69A.46.46,0,0,1,91.63,267.3Zm4-3.12a1,1,0,0,0,.14-.16,89,89,0,0,0,7.37-7.92,13.92,13.92,0,0,0,1.49-2.17c.18-.34.24-.54.16-.59s-.24,0-.48.16-.5.35-.78.58l-.73.63-.38.32a41,41,0,0,0-4.32,4.71q-2,2.53-3.7,5.25A2.71,2.71,0,0,0,95.61,264.18Z"/><path class="d" d="M90.43,273.45a.85.85,0,0,1-.45-.13,1.07,1.07,0,0,1-.41-1,2.19,2.19,0,0,1,.16-.83,13.55,13.55,0,0,1,.9-1.83l.43-.82a1.61,1.61,0,0,0,.18-.52,1.67,1.67,0,0,0,0-.56.8.8,0,0,1,.19-.7h0a2.51,2.51,0,0,1,.48-.41,1.74,1.74,0,0,0,.54-.54,42.68,42.68,0,0,1,4.13-6.24,62.81,62.81,0,0,1,5-5.56,21.41,21.41,0,0,1,1.86-1.59,3.89,3.89,0,0,1,1.16-.6,1.14,1.14,0,0,1,1.1.14,1.19,1.19,0,0,1,.31,1.09,3.42,3.42,0,0,1-.51,1.26,22.52,22.52,0,0,1-2.4,3.23c-1.43,1.66-2.92,3.29-4.43,4.84a50.12,50.12,0,0,1-4.88,4.43,2.35,2.35,0,0,0-.69.8,1.28,1.28,0,0,1-.07.16c-.33.72-.68,1.42-1,2.08-.18.33-.35.66-.52,1l.24-.21,1.12-1.06,1.66-1.56a7.59,7.59,0,0,1,2.12-1.4,3,3,0,0,1,.75-.24,1.15,1.15,0,0,1,1,.27,1.18,1.18,0,0,1,.51.83,2.68,2.68,0,0,1,0,.84l-.08.39c-.08.41-.16.82-.24,1.21l0,.23c-.07.31-.12.62-.16.92s0,.42,0,.45.19.06.45,0a6.88,6.88,0,0,0,2.1-1c1-.66,2-1.31,3-2l1.56-1,.16-.11a2.72,2.72,0,0,1,1-.48.65.65,0,0,1,.65.23.64.64,0,0,1,0,.91,1.79,1.79,0,0,1-.26.2l-.14.11-1.17.76q-2.13,1.41-4.28,2.78a7.74,7.74,0,0,1-2.1,1,2,2,0,0,1-1.82-.21,2,2,0,0,1-.54-1.77,12.82,12.82,0,0,1,.35-1.93l0-.19c.16-.75.07-.92.06-.92a1.29,1.29,0,0,0-.41.18,11.32,11.32,0,0,0-1,.76l-.1.08a25.7,25.7,0,0,0-2.5,2.28c-.25.27-.52.53-.79.78l0,.06a4.77,4.77,0,0,1-1.29,1A1.62,1.62,0,0,1,90.43,273.45Zm1.46-5.92c0,.05,0,.08,0,.11a2.21,2.21,0,0,1,.06.79,2.31,2.31,0,0,1-.25.74l-.44.84a13.7,13.7,0,0,0-.86,1.76,1.39,1.39,0,0,0-.12.57c0,.25.06.38.11.41s.19,0,.44-.07a4.13,4.13,0,0,0,1.09-.85l.07-.07c.27-.25.53-.51.77-.77a29.69,29.69,0,0,1,2.56-2.34l.13-.1c.34-.27.7-.54,1.07-.78a1.07,1.07,0,0,1,1.17-.16c.33.22.39.69.21,1.59l0,.22a13.76,13.76,0,0,0-.34,1.84,1.46,1.46,0,0,0,.3,1.19,1.41,1.41,0,0,0,1.21.08,7.22,7.22,0,0,0,1.91-.89c1.44-.92,2.86-1.85,4.28-2.79l1-.66h0l.17-.12a3.55,3.55,0,0,0,.31-.23,2.69,2.69,0,0,0-.73.39l-.21.14-1.54,1c-1,.66-2,1.32-3,2a7.38,7.38,0,0,1-2.3,1.09,1.1,1.1,0,0,1-1.07-.11,1.15,1.15,0,0,1-.27-1.05c0-.33.09-.65.16-1l0-.22.24-1.22.08-.4a1.89,1.89,0,0,0,0-.62.54.54,0,0,0-.24-.38.53.53,0,0,0-.43-.13,1.91,1.91,0,0,0-.57.19,7.13,7.13,0,0,0-2,1.27l-1.65,1.55-1.14,1.08-.44.38a3.21,3.21,0,0,1-.5.36.53.53,0,0,1-.48.05.45.45,0,0,1-.24-.31c0-.16,0-.36.28-.9s.4-.79.62-1.18c.36-.65.71-1.33,1-2a1.16,1.16,0,0,1,.09-.19,2.83,2.83,0,0,1,.87-1,50,50,0,0,0,4.82-4.37c1.49-1.55,3-3.17,4.4-4.82a22.07,22.07,0,0,0,2.34-3.14,2.9,2.9,0,0,0,.41-1c0-.23,0-.42-.08-.48a.63.63,0,0,0-.48,0,3.34,3.34,0,0,0-.93.49,20.2,20.2,0,0,0-1.8,1.53,61.4,61.4,0,0,0-5,5.5A42.09,42.09,0,0,0,93,266.47a2.59,2.59,0,0,1-.75.76,2.17,2.17,0,0,0-.35.3Zm1.69-1.9.52-.82c1.15-1.81,2.4-3.59,3.72-5.28a39.91,39.91,0,0,1,4.35-4.75l.39-.33.74-.63a8.35,8.35,0,0,1,.81-.6.83.83,0,0,1,.83-.17c.4.24.11.78,0,1a14.2,14.2,0,0,1-1.53,2.23A92.58,92.58,0,0,1,96,264.26a.7.7,0,0,1-.13.15,3,3,0,0,1-1.37.9ZM104.19,254l-.46.36L103,255l-.41.35A40.83,40.83,0,0,0,98.35,260q-1.39,1.79-2.67,3.68a95.09,95.09,0,0,0,7.18-7.74A13.07,13.07,0,0,0,104.19,254Z"/><path class="d" d="M158.85,251.84c-.75,0-1.49,0-2.24,0-1.9.05-3.8.08-5.71.08q-6.33,0-12.61.33a26.07,26.07,0,0,0-9.23,2,7.54,7.54,0,0,0-.74.29,7.12,7.12,0,0,0-2.22,1.28,2.11,2.11,0,0,0-.31,2.44.22.22,0,0,1-.06.12.57.57,0,0,1-.16.15.38.38,0,0,1-.19.06.87.87,0,0,1-.66-.08,1.2,1.2,0,0,1-.42-.37,2.09,2.09,0,0,1,.17-2.44,7.54,7.54,0,0,1,3.14-2.28A30.9,30.9,0,0,1,139.82,251q8.56-.21,17.17-.33l4.84-.09c.27,0,.55,0,.82,0,1.19,0,2.37,0,3.56,0s1.66.61,1.08,1.49a7.06,7.06,0,0,1-1.16,1.08,51.73,51.73,0,0,0-10,11.13A174.57,174.57,0,0,1,145.24,279l-.17.17a1.62,1.62,0,0,0-.33.46.83.83,0,0,0,.08.7c1.16-.08,2.33-.18,3.52-.29l7.94-.58c1.68-.11,3.38-.18,5.09-.21a8.33,8.33,0,0,1,1.49.13.8.8,0,0,1,.7.58.35.35,0,0,1-.08.33.64.64,0,0,1-.37.16,3.2,3.2,0,0,1-.75.09,104.49,104.49,0,0,0-11.54.62q-2.9.24-5.79.45a4.41,4.41,0,0,0-3.35,1.61,151.73,151.73,0,0,1-13.78,14.28,36.89,36.89,0,0,1-9.18,6.37,20.3,20.3,0,0,1-9.06,2.11,11.76,11.76,0,0,1-7.74-2.69,7.1,7.1,0,0,1-2.52-6.33,8.91,8.91,0,0,1,2.07-4.74,15,15,0,0,1,4.3-3.37,58.77,58.77,0,0,1,14.69-5.13,128.57,128.57,0,0,1,18.7-2.73,5.65,5.65,0,0,0,4.22-2.11q5.79-7.16,10.88-14.69a50.37,50.37,0,0,1,9.8-11.25.66.66,0,0,1,.17-.12,2.89,2.89,0,0,0,.35-.35.62.62,0,0,0,0-.56A35.68,35.68,0,0,0,158.85,251.84ZM139.2,282.2c-.28,0-.53,0-.75,0a.69.69,0,0,1-.25,0c-1,.14-2,.27-3.06.38q-3.93.45-7.77,1a74.89,74.89,0,0,0-18.12,5.05,15,15,0,0,0-7.24,5.5,6.55,6.55,0,0,0-1,4.84q1,4.75,6.9,5.58a16.3,16.3,0,0,0,8.48-1.32,31.09,31.09,0,0,0,8-4.92,121,121,0,0,0,13.32-13.16c.52-.58,1.06-1.18,1.61-1.82.25-.3.53-.62.83-.95A2.81,2.81,0,0,0,139.2,282.2Z"/><path class="d" d="M109.67,306.29a12.12,12.12,0,0,1-8-2.78,7.47,7.47,0,0,1-2.64-6.61,9.27,9.27,0,0,1,2.15-4.93,15.86,15.86,0,0,1,4.4-3.45,59.63,59.63,0,0,1,14.78-5.16,128.92,128.92,0,0,1,18.74-2.74,5.33,5.33,0,0,0,4-2C147,273.89,150.61,269,154,264a50.51,50.51,0,0,1,9.86-11.32.62.62,0,0,1,.2-.15,2.37,2.37,0,0,0,.27-.28h0v0a36.76,36.76,0,0,0-5.45,0h0c-.75,0-1.5.05-2.25.05-1.87.05-3.79.08-5.71.08-4.18,0-8.42.11-12.6.33a26.1,26.1,0,0,0-9.11,2c-.26.09-.5.18-.74.29a6.87,6.87,0,0,0-2.12,1.22c-.49.43-.56,1.11-.22,2.08l0,.11a.55.55,0,0,1-.13.33.84.84,0,0,1-.26.23.82.82,0,0,1-.32.11,1.23,1.23,0,0,1-.87-.13,1.52,1.52,0,0,1-.54-.49,2.42,2.42,0,0,1,.2-2.83,7.91,7.91,0,0,1,3.28-2.37,31.42,31.42,0,0,1,12.32-2.51c5.75-.14,11.53-.25,17.17-.33l4.84-.08a7.4,7.4,0,0,1,.83-.05c1.18,0,2.39,0,3.58.05.86.07,1.37.31,1.57.72a1.27,1.27,0,0,1-.23,1.29,7.58,7.58,0,0,1-1.24,1.16,51.69,51.69,0,0,0-10,11,176,176,0,0,1-10.86,14.76l-.19.19a1.41,1.41,0,0,0-.27.37.43.43,0,0,0,0,.19l3.26-.27,7.95-.58c1.68-.11,3.39-.18,5.1-.2a10.05,10.05,0,0,1,1.56.12,1.15,1.15,0,0,1,1,.83.72.72,0,0,1-.17.66,1,1,0,0,1-.56.26,4.09,4.09,0,0,1-.8.08,106.11,106.11,0,0,0-11.5.62c-1.94.17-3.87.32-5.81.46a4,4,0,0,0-3.1,1.48,153.91,153.91,0,0,1-13.82,14.32,37.33,37.33,0,0,1-9.26,6.42A20.66,20.66,0,0,1,109.67,306.29Zm51.76-54.88c1,0,2.12,0,3.2.13l.22,0,.07.21a.89.89,0,0,1-.08.87,2.21,2.21,0,0,1-.4.41l-.06,0-.08.06a50.38,50.38,0,0,0-9.76,11.2c-3.38,5-7,9.95-10.9,14.71a6,6,0,0,1-4.45,2.24A127.82,127.82,0,0,0,120.53,284a59,59,0,0,0-14.6,5.1,14.63,14.63,0,0,0-4.2,3.29,8.5,8.5,0,0,0-2,4.56,6.73,6.73,0,0,0,2.41,6,11.48,11.48,0,0,0,7.52,2.6,20,20,0,0,0,8.89-2.07,36.59,36.59,0,0,0,9.11-6.32A153.48,153.48,0,0,0,141.42,283a4.74,4.74,0,0,1,3.58-1.74c1.93-.13,3.86-.29,5.79-.45a107.41,107.41,0,0,1,11.57-.62,3,3,0,0,0,.67-.08.38.38,0,0,0,.21-.07c0-.12-.12-.27-.45-.34a8.33,8.33,0,0,0-1.42-.12c-1.69,0-3.4.1-5.07.21l-7.94.58c-1.18.11-2.35.2-3.51.29h-.24l-.09-.21a1.13,1.13,0,0,1-.08-1,2.25,2.25,0,0,1,.39-.54l.17-.16a172.93,172.93,0,0,0,10.79-14.68,52.18,52.18,0,0,1,10.12-11.2,6.63,6.63,0,0,0,1.12-1,.77.77,0,0,0,.17-.58c0-.07-.2-.28-1-.35-1.16,0-2.35-.07-3.52,0-.27,0-.54,0-.8,0L157,251c-5.64.08-11.42.19-17.16.33a30.78,30.78,0,0,0-12.08,2.45,7.3,7.3,0,0,0-3,2.18,1.76,1.76,0,0,0-.13,2.07.83.83,0,0,0,.29.23.53.53,0,0,0,.42.05h.07l0,0a2.34,2.34,0,0,1,.46-2.65,7.27,7.27,0,0,1,2.32-1.35A6.28,6.28,0,0,1,129,254a26.37,26.37,0,0,1,9.31-2c4.19-.22,8.44-.33,12.63-.33,1.91,0,3.83,0,5.7-.08.75,0,1.49,0,2.23,0S160.55,251.41,161.43,251.41ZM109.74,305c-.59,0-1.19,0-1.81-.08-4.09-.57-6.51-2.54-7.21-5.85a6.94,6.94,0,0,1,1-5.09,15.46,15.46,0,0,1,7.4-5.64,76.18,76.18,0,0,1,18.19-5.06c2.57-.36,5.19-.7,7.79-1,1-.11,2-.23,3.06-.37a.39.39,0,0,0,.18,0h.07a3.41,3.41,0,0,1,2,.23l.45.18-.33.36c-.3.32-.57.64-.81.94-.56.64-1.1,1.25-1.63,1.83a120.55,120.55,0,0,1-13.35,13.18,31.19,31.19,0,0,1-8.11,5A16,16,0,0,1,109.74,305Zm28.78-22.46a1.12,1.12,0,0,1-.32,0c-1,.14-2,.26-3,.37-2.6.3-5.21.64-7.77,1a76.05,76.05,0,0,0-18,5,14.67,14.67,0,0,0-7.09,5.38,6.23,6.23,0,0,0-.9,4.59c.63,3,2.8,4.77,6.62,5.31a16.06,16.06,0,0,0,8.29-1.3,30.74,30.74,0,0,0,8-4.87A119.37,119.37,0,0,0,137.53,285c.53-.58,1.07-1.19,1.62-1.82.15-.18.31-.38.49-.57A2.53,2.53,0,0,0,138.52,282.58Z"/><path class="d" d="M161.51,284.89a2.78,2.78,0,0,1,.41-.29c1.1-.63,2.19-1.3,3.27-2,.71-.45,1.45-.89,2.19-1.33A1.86,1.86,0,0,1,168,281a1.17,1.17,0,0,1,.73.08c.3.17.46.36.47.58a1.58,1.58,0,0,1-.14.71c-.09.19-.17.4-.25.62a7.92,7.92,0,0,0-.71,2.89c0,1.35.76,2,2.36,1.82a9.26,9.26,0,0,0,3-.82,91.4,91.4,0,0,0,11.83-6.21l.54-.37a3.52,3.52,0,0,1,.42-.29,1.49,1.49,0,0,1,.62-.27.76.76,0,0,1,.66.23.35.35,0,0,1,.12.45,1.14,1.14,0,0,1-.33.42A10.76,10.76,0,0,1,186,282,90.42,90.42,0,0,1,174,288.12a13.15,13.15,0,0,1-3,.82q-4.59.38-4.43-3.47c0-.39.06-.8.09-1.24,0-.22,0-.47.08-.75a15.55,15.55,0,0,0-2.94,1.58c-.27.19-.55.37-.82.53a1.41,1.41,0,0,1-.38.21,15.36,15.36,0,0,1-3.51,1.82,3.69,3.69,0,0,1-1.08.17,1.82,1.82,0,0,1-1-.33,1.23,1.23,0,0,1-.52-.85,1.67,1.67,0,0,1,.23-.89,1,1,0,0,1,.08-.21,7.3,7.3,0,0,1,.58-1.07,21.84,21.84,0,0,1,9.06-7,8.59,8.59,0,0,1,4-.78c1.52.22,2.08.89,1.7,2a.82.82,0,0,1-.7.49c-.42,0-.62-.21-.62-.54s-.19-.7-.48-.78a2,2,0,0,0-1.06,0,.88.88,0,0,0-.29,0,1.33,1.33,0,0,0-.45.08,17.81,17.81,0,0,0-10.14,8A6.38,6.38,0,0,0,161.51,284.89Z"/><path class="d" d="M170.26,289.31a4.28,4.28,0,0,1-3.07-1,3.6,3.6,0,0,1-.93-2.88c0-.4.05-.81.08-1.25,0-.06,0-.12,0-.19a14.65,14.65,0,0,0-2.34,1.31c-.29.2-.57.38-.85.55a1.72,1.72,0,0,1-.38.22,16.07,16.07,0,0,1-3.57,1.84,2.72,2.72,0,0,1-2.41-.2,1.6,1.6,0,0,1-.67-1.12,2.09,2.09,0,0,1,.27-1.06.75.75,0,0,1,.08-.2,6.23,6.23,0,0,1,.6-1.11,22.27,22.27,0,0,1,9.2-7.12,9.11,9.11,0,0,1,4.21-.81,2.49,2.49,0,0,1,1.93,1,1.72,1.72,0,0,1,.07,1.5,1.17,1.17,0,0,1-1,.73h-.08a.88.88,0,0,1-.93-.88c0-.4-.18-.44-.23-.46a1.7,1.7,0,0,0-.88.05h-.09l-.18,0-.1,0a.81.81,0,0,0-.33.06,17.67,17.67,0,0,0-9.6,7.25,5.71,5.71,0,0,0,2.19-1,4,4,0,0,1,.45-.31c1.1-.63,2.2-1.3,3.25-2,.73-.44,1.46-.89,2.21-1.33a2.12,2.12,0,0,1,.73-.33,1.47,1.47,0,0,1,.94.11,1.07,1.07,0,0,1,.68.86,1.79,1.79,0,0,1-.17.86l-.25.61a7.72,7.72,0,0,0-.68,2.79,1.41,1.41,0,0,0,.37,1.12,2.08,2.08,0,0,0,1.62.35,9.17,9.17,0,0,0,2.91-.8,92.83,92.83,0,0,0,11.8-6.19l.52-.36a3.3,3.3,0,0,1,.43-.3,1.9,1.9,0,0,1,.73-.31,1.08,1.08,0,0,1,.95.3.67.67,0,0,1,.2.86,1.46,1.46,0,0,1-.42.53,10.61,10.61,0,0,1-1.43,1.13,89.56,89.56,0,0,1-12,6.2,13.86,13.86,0,0,1-3.1.85ZM167.15,283l-.05.56q0,.42-.09.75c0,.42,0,.84-.08,1.22a3,3,0,0,0,.73,2.36,4.24,4.24,0,0,0,3.33.76,12.72,12.72,0,0,0,2.92-.81,90.35,90.35,0,0,0,11.87-6.13,10.65,10.65,0,0,0,1.35-1.08,1,1,0,0,0,.26-.32l0,0a.46.46,0,0,0-.38-.16,1.33,1.33,0,0,0-.49.21,4,4,0,0,0-.4.28l-.55.39a94.33,94.33,0,0,1-11.89,6.24,9.62,9.62,0,0,1-3.12.85,2.69,2.69,0,0,1-2.15-.52,2.08,2.08,0,0,1-.58-1.64,8.17,8.17,0,0,1,.73-3c.08-.21.16-.42.25-.62a1.28,1.28,0,0,0,.11-.55c0-.12-.19-.24-.3-.3a.72.72,0,0,0-.48-.05,1.55,1.55,0,0,0-.52.24c-.77.45-1.5.89-2.22,1.33-1.06.69-2.16,1.36-3.27,2a4.33,4.33,0,0,0-.37.27h0a6.69,6.69,0,0,1-3.22,1.22l-.67.09.33-.59a18.22,18.22,0,0,1,10.32-8.18,1.65,1.65,0,0,1,.51-.1,1.36,1.36,0,0,1,.3,0,2.42,2.42,0,0,1,1.19,0c.31.09.68.35.72,1.09,0,.11,0,.2.27.22a.45.45,0,0,0,.4-.28,1,1,0,0,0,0-.92,2,2,0,0,0-1.42-.65,8.42,8.42,0,0,0-3.86.76,21.65,21.65,0,0,0-8.93,6.89,6.3,6.3,0,0,0-.54,1,1.46,1.46,0,0,0-.07.19,1.44,1.44,0,0,0-.21.76.91.91,0,0,0,.39.6,2.09,2.09,0,0,0,1.8.11,15.44,15.44,0,0,0,3.42-1.78l.07,0a1.17,1.17,0,0,0,.29-.17c.3-.18.57-.35.84-.54a15.88,15.88,0,0,1,3-1.61Z"/><path class="d" d="M186.09,282.33a9.32,9.32,0,0,0-2,4.46c-.24,2,.79,2.78,3.11,2.44a22.39,22.39,0,0,0,6.28-1.69c3.84-1.66,7.73-3.5,11.67-5.55q1.49-.74,2.85-1.44a3.08,3.08,0,0,0,.46-.25,3.75,3.75,0,0,1,1.49-.54,1.12,1.12,0,0,1,.35.06.55.55,0,0,1,.27.19.43.43,0,0,1,.1.27.29.29,0,0,1-.06.27,5.32,5.32,0,0,1-1.12.78l-2.06,1q-6.75,3.56-13.49,6.45a20.2,20.2,0,0,1-7.32,1.66q-4.47,0-4.1-3.6a12.24,12.24,0,0,1,5-8,18.18,18.18,0,0,1,6.41-3.18,4.09,4.09,0,0,1,1.09-.19,1.63,1.63,0,0,1,1.06.35,1.11,1.11,0,0,1,.52.91,2,2,0,0,1-.31.95,3.7,3.7,0,0,1-1.7,1.91.85.85,0,0,1-.35.08.39.39,0,0,1-.31-.13.81.81,0,0,1-.19-.29.3.3,0,0,1,0-.24,2.17,2.17,0,0,1,.46-.67c.16-.22.32-.45.47-.7a2.13,2.13,0,0,0,.27-.95A15.4,15.4,0,0,0,186.09,282.33Z"/><path class="d" d="M186.54,290.81a4.71,4.71,0,0,1-3.61-1.17,3.43,3.43,0,0,1-.73-2.8,12.64,12.64,0,0,1,5.09-8.26,18.6,18.6,0,0,1,6.53-3.24,4.55,4.55,0,0,1,1.17-.2,2,2,0,0,1,1.27.42,1.42,1.42,0,0,1,.65,1.19,2.18,2.18,0,0,1-.34,1.09,4,4,0,0,1-1.83,2.05.91.91,0,0,1-1.07-.1,1.13,1.13,0,0,1-.27-.41.64.64,0,0,1,0-.51,2.4,2.4,0,0,1,.52-.76,6.48,6.48,0,0,0,.42-.64,1,1,0,0,0,.14-.3,14.87,14.87,0,0,0-8.12,5.35v0a9,9,0,0,0-1.91,4.3,1.91,1.91,0,0,0,.37,1.68,2.78,2.78,0,0,0,2.35.38,22.26,22.26,0,0,0,6.2-1.67c3.81-1.65,7.73-3.51,11.64-5.54,1-.49,1.95-1,2.86-1.44a2.46,2.46,0,0,0,.42-.23,4.15,4.15,0,0,1,1.63-.59,1.4,1.4,0,0,1,.51.07.86.86,0,0,1,.44.32.69.69,0,0,1,.16.42.65.65,0,0,1-.16.55,5.62,5.62,0,0,1-1.2.84l-2.07,1c-4.48,2.36-9,4.54-13.51,6.46a20.43,20.43,0,0,1-7.44,1.68Zm8.52-15h0a3.88,3.88,0,0,0-1,.17,17.91,17.91,0,0,0-6.3,3.13,11.92,11.92,0,0,0-4.84,7.81,2.81,2.81,0,0,0,.56,2.25,4.15,4.15,0,0,0,3.19,1,19.94,19.94,0,0,0,7.19-1.63c4.47-1.92,9-4.08,13.47-6.44l2.07-1a5.38,5.38,0,0,0,1-.69.42.42,0,0,0,0-.11.28.28,0,0,0-.13-.09.75.75,0,0,0-.24,0,3.54,3.54,0,0,0-1.31.49,3.18,3.18,0,0,1-.51.27c-.88.46-1.83.94-2.83,1.44-3.92,2-7.85,3.9-11.68,5.55a23.21,23.21,0,0,1-6.38,1.72,3.35,3.35,0,0,1-2.92-.57,2.55,2.55,0,0,1-.56-2.25,9.62,9.62,0,0,1,2-4.63,15.8,15.8,0,0,1,9-5.75l.46-.12,0,.47a2.46,2.46,0,0,1-.32,1.11c-.16.26-.32.5-.49.73a2,2,0,0,0-.4.55.5.5,0,0,0,.12.21.34.34,0,0,0,.27,0,3.27,3.27,0,0,0,1.53-1.72l0-.06a1.54,1.54,0,0,0,.26-.78c0-.08,0-.32-.39-.63A1.27,1.27,0,0,0,195.06,275.82ZM194,279.15Z"/><path class="d" d="M211.85,282.71a15.76,15.76,0,0,1,2.44-1.82q2.94-1.62,3.85-.25c.53.88,0,2-1.45,3.39a13.93,13.93,0,0,1-2.85,1.94l-.7.42c-.75.44-.82,1-.21,1.57a4.1,4.1,0,0,0,4.18,1.08,42,42,0,0,0,5.5-1.82,47.48,47.48,0,0,0,5.89-2.8c1.78-1,3.31-1.91,4.58-2.71a14.79,14.79,0,0,1,1.94-1.07.55.55,0,0,1,.33,0,.52.52,0,0,1,.29.18,1,1,0,0,1,.1.38.43.43,0,0,1-.06.33,8,8,0,0,1-1.32,1.12,80.48,80.48,0,0,1-7.49,4.26,65.82,65.82,0,0,1-8.11,3.22,7.19,7.19,0,0,1-4.9.23,7.76,7.76,0,0,1-3.54-3.62,10,10,0,0,0-2.31,3.1c-.67,1.24-1.31,2.49-1.95,3.73-.33.69-.67,1.38-1,2.06a2.72,2.72,0,0,1-.5.71.78.78,0,0,1-.83.12c-.35-.16-.53-.38-.51-.66a2.14,2.14,0,0,1,.22-.83l.58-1.36q1.41-3.48,2.94-6.95c.52-1.16,1-2.33,1.57-3.52a4,4,0,0,0,0-1.9,1,1,0,0,1,.25-.83,4.42,4.42,0,0,1,.87-.74,4.29,4.29,0,0,0,1.32-1.33,87.62,87.62,0,0,1,8.54-12.9A129.52,129.52,0,0,1,229.81,254a38.15,38.15,0,0,1,3.84-3.23,6.94,6.94,0,0,1,2.2-1.16c1.49-.39,2.15.22,2,1.82a6.44,6.44,0,0,1-1,2.32,45.62,45.62,0,0,1-4.92,6.62q-4.43,5.13-9.16,10a98.38,98.38,0,0,1-10.12,9.12,5.94,5.94,0,0,0-1.61,1.94,16,16,0,0,0-.79,1.91c-.14.33-.26.63-.37.91C210.63,283.71,211.27,283.2,211.85,282.71Zm3.42.56q.67-.69.45-1c-.15-.18-.51-.1-1.07.23a7.29,7.29,0,0,0-2,2.11A7.71,7.71,0,0,0,215.27,283.27Zm1.71-9.33.33-.33a191.84,191.84,0,0,0,15.27-16.47,28.2,28.2,0,0,0,3.1-4.51c.39-.74.5-1.16.33-1.24s-.49,0-1,.35-1,.71-1.61,1.18-1.11.9-1.55,1.3l-.79.69a84.16,84.16,0,0,0-9,9.8q-4.1,5.25-7.69,10.92A5.73,5.73,0,0,0,217,273.94Z"/><path class="d" d="M204.06,296.88a1.72,1.72,0,0,1-.46-.07c-.65-.3-.77-.71-.75-1a2.46,2.46,0,0,1,.26-1l.57-1.35c.93-2.29,1.92-4.63,2.94-6.95.53-1.16,1-2.33,1.57-3.51a3.78,3.78,0,0,0-.06-1.69,1.31,1.31,0,0,1,.33-1.13,4.76,4.76,0,0,1,.93-.8,4.24,4.24,0,0,0,1.23-1.23,88.29,88.29,0,0,1,8.56-12.93,130.4,130.4,0,0,1,10.39-11.54,40.21,40.21,0,0,1,3.88-3.25,7,7,0,0,1,2.3-1.21,2.06,2.06,0,0,1,1.91.21,2.16,2.16,0,0,1,.51,2,7,7,0,0,1-1,2.46,46.17,46.17,0,0,1-4.95,6.66c-2.94,3.4-6,6.78-9.17,10a99.09,99.09,0,0,1-10.15,9.16,5.43,5.43,0,0,0-1.52,1.83,14.83,14.83,0,0,0-.7,1.66c.34-.27.66-.53,1-.79a15.86,15.86,0,0,1,2.49-1.85c2.14-1.18,3.58-1.23,4.3-.15s.12,2.33-1.5,3.83a14.75,14.75,0,0,1-2.93,2c-.23.13-.46.26-.68.4s-.43.29-.45.48.16.41.31.56a3.73,3.73,0,0,0,3.85,1,40.51,40.51,0,0,0,5.46-1.81,47.68,47.68,0,0,0,5.86-2.77c1.77-1,3.3-1.91,4.56-2.7a14.22,14.22,0,0,1,2-1.1.92.92,0,0,1,.57,0,.88.88,0,0,1,.47.33,1.3,1.3,0,0,1,.16.52.85.85,0,0,1-.12.56,8.06,8.06,0,0,1-1.41,1.21,78.08,78.08,0,0,1-7.53,4.28,67.08,67.08,0,0,1-8.15,3.24,7.5,7.5,0,0,1-5.14.22,7.66,7.66,0,0,1-3.48-3.39,9.58,9.58,0,0,0-1.94,2.71c-.67,1.25-1.31,2.49-1.95,3.73-.33.69-.67,1.38-1,2.07a3,3,0,0,1-.56.79A1,1,0,0,1,204.06,296.88Zm32.56-47.08a2.79,2.79,0,0,0-.69.1,6.54,6.54,0,0,0-2.07,1.09A40.54,40.54,0,0,0,230,254.2a130.27,130.27,0,0,0-10.33,11.47,87,87,0,0,0-8.51,12.85,4.63,4.63,0,0,1-1.44,1.45,4.74,4.74,0,0,0-.8.69.62.62,0,0,0-.17.54,4.29,4.29,0,0,1,0,2c-.54,1.25-1.07,2.42-1.59,3.58-1,2.31-2,4.64-2.93,6.93-.2.45-.39.91-.58,1.37a1.94,1.94,0,0,0-.21.72c0,.05,0,.18.33.34s.4,0,.44-.06a2.45,2.45,0,0,0,.44-.62c.35-.69.7-1.37,1-2.06.64-1.25,1.29-2.49,2-3.74a10.52,10.52,0,0,1,2.38-3.19l.32-.29.21.37a7.44,7.44,0,0,0,3.36,3.48,6.93,6.93,0,0,0,4.68-.24,67.86,67.86,0,0,0,8.06-3.21,77.55,77.55,0,0,0,7.46-4.24,7,7,0,0,0,1.24-1.05s0,0,0-.08a.84.84,0,0,0-.06-.24s0,0-.1,0l-.13,0a14.47,14.47,0,0,0-1.86,1c-1.27.8-2.81,1.71-4.59,2.72a48.29,48.29,0,0,1-5.94,2.81,38.92,38.92,0,0,1-5.55,1.83,4.37,4.37,0,0,1-4.48-1.16,1.35,1.35,0,0,1-.51-1.13,1.39,1.39,0,0,1,.77-1l.71-.42a13.55,13.55,0,0,0,2.8-1.9c1.34-1.25,1.81-2.25,1.38-3s-1.62-.6-3.39.37a16.18,16.18,0,0,0-2.38,1.78h0c-.58.51-1.24,1-2,1.55l-1,.7.44-1.1c.11-.28.23-.58.37-.91a16.09,16.09,0,0,1,.79-1.93,6.31,6.31,0,0,1,1.71-2,100.11,100.11,0,0,0,10.08-9.1c3.14-3.25,6.22-6.62,9.15-10a46.17,46.17,0,0,0,4.89-6.58,6.2,6.2,0,0,0,.91-2.21,1.68,1.68,0,0,0-.28-1.35A.89.89,0,0,0,236.62,249.8Zm-24.83,35.54.61-.88a7.34,7.34,0,0,1,2.08-2.21c.29-.18,1.09-.64,1.5-.15s-.25,1.18-.47,1.4A7.76,7.76,0,0,1,212.8,285Zm3.61-2.77a1.93,1.93,0,0,0-.58.26,4.48,4.48,0,0,0-1.12,1A4.94,4.94,0,0,0,215,283,2.31,2.31,0,0,0,215.4,282.57Zm-1.78-6.31.51-.81c2.4-3.77,5-7.45,7.72-10.95a84.79,84.79,0,0,1,9-9.84,9.58,9.58,0,0,0,.79-.69c.44-.4,1-.84,1.57-1.31s1.15-.88,1.63-1.2c.63-.41,1-.52,1.31-.37a.46.46,0,0,1,.24.27c.06.2.06.51-.42,1.43a28.49,28.49,0,0,1-3.14,4.57,193.94,193.94,0,0,1-15.29,16.49l-.32.32a6.1,6.1,0,0,1-2.7,1.78Zm22.08-24.51a3.9,3.9,0,0,0-.47.28c-.47.3-1,.7-1.59,1.16s-1.1.89-1.54,1.28c-.6.55-.75.67-.82.72a84.83,84.83,0,0,0-8.9,9.73c-2.48,3.18-4.86,6.53-7.07,9.95a5.31,5.31,0,0,0,1.42-1.15v0l.34-.33a194.24,194.24,0,0,0,15.24-16.44,28.05,28.05,0,0,0,3.07-4.46A4.25,4.25,0,0,0,235.7,251.75Z"/><path class="d" d="M268.62,274.92a137.54,137.54,0,0,0-18.24,1.7,22.24,22.24,0,0,0-6.45,1.94,2.48,2.48,0,0,0-.29.17,4.18,4.18,0,0,0-1.16.74,1.56,1.56,0,0,0-.46,1.28,1.83,1.83,0,0,0,.6,1.1,4.22,4.22,0,0,0,1.06.64,6.6,6.6,0,0,1,.7.37,4.29,4.29,0,0,0,.5.29A2.25,2.25,0,0,1,246,284c0,.3-.17.45-.35.43a1.56,1.56,0,0,1-.6-.18,2.77,2.77,0,0,0-.54-.29c-.66-.33-1.31-.69-1.94-1.08q-3.15-2.19-.66-4.42a9.48,9.48,0,0,1,3.18-1.66,37.62,37.62,0,0,1,7-1.65q8.54-1.12,17.21-1.41,6-11,12.54-21.76a27.38,27.38,0,0,1,3.27-4.63,1.92,1.92,0,0,1,.16-.21,3.29,3.29,0,0,1,1.33-1,1.46,1.46,0,0,1,.95-.09.74.74,0,0,1,.49.67,5.5,5.5,0,0,1-.08,2.52.1.1,0,0,1,0,.08.88.88,0,0,1-.23.46.64.64,0,0,1-.64.12c-.25,0-.39-.16-.43-.31a1.06,1.06,0,0,1,0-.47.12.12,0,0,1,0-.09,1.22,1.22,0,0,0,0-.33.57.57,0,0,0-.27-.33,35.87,35.87,0,0,0-3.43,4.9q-2.61,4.13-5.57,9.19t-4.86,8.7l-1.41,2.53,2,0v0h.29c.39,0,1,0,1.7-.07l2.11-.1,1.15,0h.17a.59.59,0,0,1,.21,0c1.24,0,2.48-.07,3.72-.13q4.85-.17,9.64-.2h4a1.77,1.77,0,0,0,.46,0h.29c.91,0,1.82,0,2.73,0l1.94-3.31a11,11,0,0,0,.95-1.78,13.11,13.11,0,0,1,.66-1.41q1.88-3.06,3.73-6.16t3.76-6.33a1.48,1.48,0,0,0,.21-.37,3.35,3.35,0,0,1,.58-.85.81.81,0,0,1,.91-.15c.41.2.6.43.58.71a2.14,2.14,0,0,1-.33.87,1.89,1.89,0,0,0-.25.49,22.55,22.55,0,0,1-.95,2.32c-.09.19-.18.4-.29.62a1.51,1.51,0,0,1-.13.33,2.55,2.55,0,0,1-.22.54,1.07,1.07,0,0,1-.36.37,6.23,6.23,0,0,0-2.17,1.92,15.38,15.38,0,0,0-1.38,2.47,18.88,18.88,0,0,1-1.2,2.11c-.69,1.07-1.37,2.23-2,3.47-.14.25-.28.51-.41.79v0L301.3,273c.53,0,1.07,0,1.62,0,1.6,0,3.2,0,4.8,0a8.27,8.27,0,0,1,1.4.12.54.54,0,0,1,.25.19,1.07,1.07,0,0,1,.17.27c0,.17,0,.29,0,.37a.49.49,0,0,1-.34.13h-5.25c-.66,0-1.34-.05-2-.05h-1.24l-.25.46q-6,11.67-12.08,23.25c-1.26,2.43-2.55,4.87-3.84,7.32a13.4,13.4,0,0,1-1.08,1.86.63.63,0,0,1-.35.29.77.77,0,0,1-.52,0,.64.64,0,0,1-.37-.35.81.81,0,0,1,0-.43c.11-.39.23-.78.37-1.16.36-.58,1-1.73,1.9-3.46l3-5.62q1.59-3,4-7.59l.25-.58c.08-.2.17-.38.25-.54,1.38-2.57,2.76-5.14,4.14-7.74.58-1.13,1.17-2.24,1.78-3.35.19-.41.39-.81.62-1.2s.42-.77.62-1.16c-.83,0-1.66,0-2.49-.08H292c-2.84.08-5.69.18-8.53.29l-6.86.21h-.13l-4.17.16-1.91.13-1.53,2.73a2.45,2.45,0,0,0-.37.74L266.93,281c-.09.2-.2.42-.33.67-1.13,2.06-2.25,4.12-3.35,6.16q-4.89,9.06-9.77,18.08a1.42,1.42,0,0,0-.2.41,2.05,2.05,0,0,1-.4.81c-.18.2-.49.24-.93.1a1,1,0,0,1-.6-.39.56.56,0,0,1,0-.5,4.3,4.3,0,0,1,.35-.52,1.37,1.37,0,0,0,.25-.41q2.23-4.09,4.43-8.15,4.26-7.86,8.48-15.68a3.43,3.43,0,0,1,.29-.41c.08-.11.17-.24.25-.37a.79.79,0,0,0,.12-.38Z"/><path class="d" d="M252.42,307.69a1.8,1.8,0,0,1-.57-.1A1.25,1.25,0,0,1,251,307a.86.86,0,0,1,.06-.8,2.63,2.63,0,0,1,.39-.57,1.4,1.4,0,0,0,.19-.33c1.51-2.76,3-5.48,4.44-8.18q4.26-7.86,8.48-15.68a4.84,4.84,0,0,1,.33-.46l.22-.34a.34.34,0,0,0,.07-.2v-.08l2.82-5.1A136.89,136.89,0,0,0,250.43,277a22.13,22.13,0,0,0-6.36,1.92,2,2,0,0,0-.25.14,3.92,3.92,0,0,0-1.11.71,1.21,1.21,0,0,0-.35,1,1.35,1.35,0,0,0,.48.85,4,4,0,0,0,1,.59,5.32,5.32,0,0,1,.75.4l.47.27a2.64,2.64,0,0,1,1.2.93l.08.12,0,.14c-.13.68-.55.72-.71.71a1.84,1.84,0,0,1-.73-.22,3.36,3.36,0,0,0-.52-.28c-.68-.34-1.34-.71-2-1.1a3.72,3.72,0,0,1-1.91-2.62,3,3,0,0,1,1.2-2.34,9.89,9.89,0,0,1,3.31-1.73,38.09,38.09,0,0,1,7.05-1.67c5.61-.73,11.34-1.2,17.05-1.4,4-7.23,8.18-14.5,12.45-21.6a27.77,27.77,0,0,1,3.3-4.68,1.21,1.21,0,0,1,.18-.23,3.65,3.65,0,0,1,1.43-1.1,1.83,1.83,0,0,1,1.18-.1,1.06,1.06,0,0,1,.74.93,5.89,5.89,0,0,1-.09,2.64.33.33,0,0,1-.05.16,1.21,1.21,0,0,1-.3.54,1,1,0,0,1-.95.23.81.81,0,0,1-.7-.55,1.61,1.61,0,0,1,0-.62.11.11,0,0,1,0,0,51.8,51.8,0,0,0-3,4.44c-1.74,2.75-3.61,5.84-5.56,9.18s-3.59,6.28-4.85,8.69l-1.12,2,1.06,0,.63,0c.38,0,1,0,1.68-.06s1.45-.08,2.11-.11l1.17,0h.12a.87.87,0,0,1,.26,0c1.23,0,2.47-.07,3.7-.12,3.24-.11,6.49-.18,9.66-.21h4a1.25,1.25,0,0,0,.39,0h.31c.89,0,1.74,0,2.59,0l1.84-3.13a5.93,5.93,0,0,0,.56-1,6,6,0,0,0,.37-.77,11.19,11.19,0,0,1,.68-1.44q1.88-3.08,3.73-6.17c1.24-2.13,2.51-4.26,3.76-6.34a1.35,1.35,0,0,0,.19-.32,4,4,0,0,1,.64-.95,1.08,1.08,0,0,1,1.27-.23c.72.33.83.75.8,1.05a2.33,2.33,0,0,1-.38,1,1.38,1.38,0,0,0-.21.42,21.24,21.24,0,0,1-1,2.36c-.07.17-.17.37-.27.59a2.67,2.67,0,0,1-.14.36,2.62,2.62,0,0,1-.24.56,1.48,1.48,0,0,1-.47.49,6,6,0,0,0-2.07,1.83,15.86,15.86,0,0,0-1.36,2.41,16.62,16.62,0,0,1-1.22,2.15c-.68,1.06-1.36,2.22-2,3.45-.13.23-.25.46-.38.71h0l0,.11-1.58,2.81,1.05,0H303c1.56,0,3.13,0,4.71,0h0a9.1,9.1,0,0,1,1.46.13,1,1,0,0,1,.45.3,1.21,1.21,0,0,1,.23.38.64.64,0,0,1-.13.72.75.75,0,0,1-.57.22h-5.25c-.67,0-1.34,0-2,0h-1c0,.09-.1.18-.14.27-3.94,7.71-8,15.53-12.09,23.26-1.26,2.42-2.55,4.86-3.84,7.32a14.49,14.49,0,0,1-1.1,1.89,1,1,0,0,1-.51.42,1.21,1.21,0,0,1-.73,0,1,1,0,0,1-.6-.56,1.2,1.2,0,0,1-.05-.62c.12-.42.24-.81.38-1.21l0-.06c.36-.58,1-1.73,1.9-3.43l3-5.63q1.59-3,3.95-7.59l.24-.56c.09-.19.17-.38.26-.55,1.38-2.58,2.76-5.15,4.14-7.75.58-1.13,1.18-2.26,1.78-3.35.18-.4.4-.81.62-1.2q.2-.33.36-.66c-.65,0-1.31,0-1.95-.08H292q-4.25.12-8.51.29c-2.3.06-4.58.12-6.87.21h-.14l-4.16.16-1.71.11-1.44,2.57a2.1,2.1,0,0,0-.35.68l0,.07-1.57,2.73a5.72,5.72,0,0,1-.33.66L263.54,288q-4.87,9.06-9.76,18.08a1.11,1.11,0,0,0-.18.36,2.35,2.35,0,0,1-.46.92A.92.92,0,0,1,252.42,307.69Zm30.37-2.17c-.13.36-.25.73-.36,1.1a.51.51,0,0,0,0,.22.29.29,0,0,0,.19.16.39.39,0,0,0,.26,0,.28.28,0,0,0,.18-.14,14.37,14.37,0,0,0,1.06-1.83c1.3-2.47,2.59-4.91,3.85-7.34,4.09-7.72,8.15-15.54,12.08-23.24.09-.18.18-.33.26-.48l.1-.16h1.43c.7,0,1.38,0,2,0h5.31s0,0,0,0a.55.55,0,0,0-.11-.16c-.06-.07-.09-.08-.09-.09a9,9,0,0,0-1.3-.1c-1.61,0-3.21,0-4.8,0-.57,0-1.1,0-1.62,0h-.57l2.13-3.84c.14-.28.28-.55.42-.8.66-1.24,1.35-2.42,2-3.5a16.79,16.79,0,0,0,1.18-2.07,16.77,16.77,0,0,1,1.41-2.51,6.64,6.64,0,0,1,2.29-2,.58.58,0,0,0,.22-.24,2.37,2.37,0,0,0,.2-.46,2.93,2.93,0,0,0,.12-.32l0-.07c.11-.21.21-.42.29-.6a21.76,21.76,0,0,0,.94-2.3,2.19,2.19,0,0,1,.29-.57,1.73,1.73,0,0,0,.27-.72c0-.15-.23-.29-.39-.36-.34-.12-.46,0-.52.07a3.46,3.46,0,0,0-.52.77,2,2,0,0,1-.24.42c-1.23,2-2.5,4.17-3.74,6.3s-2.49,4.13-3.73,6.17a9.89,9.89,0,0,0-.63,1.35,9.09,9.09,0,0,1-.39.83,6.34,6.34,0,0,1-.61,1l-2,3.45h-.2c-.91,0-1.82-.05-2.72-.05h-.29a1.43,1.43,0,0,1-.51,0h-4c-3.16,0-6.4.1-9.63.21-1.24.06-2.48.1-3.73.13l-.11,0-.1,0h-.17l-1.14,0-2.11.1q-1.11.06-1.71.06l-.28.05-2.58.05,1.7-3c1.26-2.41,2.89-5.35,4.86-8.71s3.83-6.44,5.57-9.2a34.49,34.49,0,0,1,3.49-5l.19-.19.23.15a.81.81,0,0,1,.41.57,1.42,1.42,0,0,1,0,.46l-.05.11a.76.76,0,0,0,0,.27h0a.39.39,0,0,0,.18.07c.2,0,.3,0,.32,0a.59.59,0,0,0,.15-.28l.05-.15a5.27,5.27,0,0,0,.07-2.34c0-.34-.2-.38-.26-.4a1.13,1.13,0,0,0-.73.07,3.09,3.09,0,0,0-1.18.92l-.15.19a28.13,28.13,0,0,0-3.26,4.62c-4.3,7.16-8.52,14.47-12.53,21.75l-.09.17h-.19c-5.76.19-11.54.66-17.18,1.4a38,38,0,0,0-6.93,1.64,9.32,9.32,0,0,0-3.08,1.6,2.37,2.37,0,0,0-1,1.79,3.2,3.2,0,0,0,1.61,2.1c.61.37,1.26.72,1.91,1.05a3.59,3.59,0,0,1,.57.31,1.24,1.24,0,0,0,.39.12h0a2,2,0,0,0-.83-.59,4.48,4.48,0,0,1-.57-.33,5.68,5.68,0,0,0-.65-.34,4.82,4.82,0,0,1-1.13-.69,2.1,2.1,0,0,1-.72-1.3,1.89,1.89,0,0,1,.56-1.59,4.38,4.38,0,0,1,1.25-.8,1.35,1.35,0,0,1,.27-.16,22.88,22.88,0,0,1,6.56-2,139.85,139.85,0,0,1,18.28-1.7h.6l-3.32,6a1,1,0,0,1-.16.45,4.62,4.62,0,0,1-.27.4,4,4,0,0,0-.27.39q-4.21,7.8-8.47,15.66-2.21,4.07-4.43,8.15a2.05,2.05,0,0,1-.28.47,2.72,2.72,0,0,0-.32.46c-.06.12,0,.18,0,.2s.05.09.4.21c.16.05.46.12.57,0a1.67,1.67,0,0,0,.32-.67,1.81,1.81,0,0,1,.26-.54l9.74-18q1.65-3.06,3.35-6.17c.13-.24.24-.45.32-.63l1.57-2.73a2.58,2.58,0,0,1,.41-.81l1.6-2.86,2.08-.13,4.33-.17q3.42-.12,6.86-.21c2.83-.11,5.67-.2,8.52-.29h4.47c.84.06,1.66.09,2.49.09h.54l-.24.49q-.3.58-.63,1.17c-.22.38-.42.77-.61,1.18-.6,1.1-1.2,2.22-1.78,3.36-1.38,2.6-2.76,5.17-4.14,7.74q-.12.22-.24.51l-.25.58c-1.58,3.06-2.9,5.59-4,7.61s-2.05,3.91-3,5.63S283.16,304.92,282.79,305.52Zm4.08-56.45v0Z"/><path class="d" d="M309.63,286a18.35,18.35,0,0,1,3.39-6.33,2.48,2.48,0,0,1,.83-.67.91.91,0,0,1,1.12.13,1,1,0,0,1,.25.5.41.41,0,0,1-.25.41,6.9,6.9,0,0,0-2.38,2.54,21.38,21.38,0,0,0-1.3,3,2.25,2.25,0,0,1-.13.42c-.72,2,.28,3,3,2.77a17.43,17.43,0,0,0,4.67-1.12,88,88,0,0,0,10.39-5c.19-.11.37-.21.54-.29l1.53-.83c.93-.52,1.89-1,2.85-1.53l.17-.08a1.46,1.46,0,0,1,.64-.27.74.74,0,0,1,.68.31.47.47,0,0,1,.08.58,1.26,1.26,0,0,1-.49.41c-1.19.64-2.35,1.27-3.48,1.9-2.12,1.22-4.29,2.38-6.49,3.48a56.45,56.45,0,0,1-6.91,2.89,14.11,14.11,0,0,1-4.76.79Q308.64,289.86,309.63,286Zm7.49-12.06a.35.35,0,0,1-.13-.27,2,2,0,0,1,1-1.62,3.2,3.2,0,0,1,2.13-.62,1.51,1.51,0,0,1,.33.13.86.86,0,0,1,.29.21.31.31,0,0,1,0,.39.55.55,0,0,1-.37.23,2.86,2.86,0,0,0-2.11,1.4.7.7,0,0,1-.83.29A.72.72,0,0,1,317.12,273.91Z"/><path class="d" d="M313.56,290.36c-1.92-.07-3.23-.55-3.9-1.45a3.46,3.46,0,0,1-.36-3h0a18.86,18.86,0,0,1,3.45-6.45,2.89,2.89,0,0,1,.94-.75,1.23,1.23,0,0,1,1.49.17,1.47,1.47,0,0,1,.36.7.72.72,0,0,1-.41.76,6.59,6.59,0,0,0-2.25,2.41,21.86,21.86,0,0,0-1.28,3,2.27,2.27,0,0,1-.13.43,1.83,1.83,0,0,0,0,1.73c.36.48,1.27.68,2.63.58a17.25,17.25,0,0,0,4.57-1.09,88,88,0,0,0,10.34-5l.56-.3c.51-.27,1-.54,1.51-.82.95-.52,1.91-1,2.87-1.53l.16-.09a1.83,1.83,0,0,1,.74-.3,1.06,1.06,0,0,1,1,.42.81.81,0,0,1,.12,1,1.57,1.57,0,0,1-.63.53c-1.18.63-2.33,1.27-3.46,1.9-2.13,1.21-4.32,2.38-6.51,3.48a58.75,58.75,0,0,1-6.95,2.91A14.51,14.51,0,0,1,313.56,290.36Zm-3.6-4.3a2.8,2.8,0,0,0,.24,2.44c.55.73,1.68,1.13,3.37,1.18a14.2,14.2,0,0,0,4.64-.76,58.12,58.12,0,0,0,6.87-2.88c2.18-1.1,4.36-2.26,6.47-3.47,1.14-.64,2.3-1.27,3.49-1.91a1,1,0,0,0,.37-.3s0-.13-.07-.19c-.19-.21-.31-.19-.35-.18a1.2,1.2,0,0,0-.51.21l-.21.11c-.94.49-1.9,1-2.84,1.52l-1.54.84c-.16.08-.34.17-.52.28a89.55,89.55,0,0,1-10.43,5,18.18,18.18,0,0,1-4.77,1.14c-1.65.12-2.7-.16-3.22-.85a2.48,2.48,0,0,1-.11-2.38,1.34,1.34,0,0,0,.11-.36,22.5,22.5,0,0,1,1.34-3.13,7.17,7.17,0,0,1,2.49-2.67c.09-.05.1-.08.1-.08a.7.7,0,0,0-.17-.33.55.55,0,0,0-.69-.05,2.11,2.11,0,0,0-.73.58A17.93,17.93,0,0,0,310,286.06Zm7.74-11.64a1.22,1.22,0,0,1-.32,0,1.17,1.17,0,0,1-.48-.21.68.68,0,0,1-.24-.53,2.32,2.32,0,0,1,1.11-1.89,3.51,3.51,0,0,1,2.35-.68,1.65,1.65,0,0,1,.46.16,1.46,1.46,0,0,1,.38.27.66.66,0,0,1,.08.82.85.85,0,0,1-.6.37,2.54,2.54,0,0,0-1.87,1.24A1,1,0,0,1,317.7,274.42Zm2.14-2.69a2.81,2.81,0,0,0-1.68.57,1.65,1.65,0,0,0-.83,1.34h0a.45.45,0,0,0,.18.07c.34.08.42-.06.47-.13a3.23,3.23,0,0,1,2.33-1.57.2.2,0,0,0,.16-.08,1.36,1.36,0,0,1-.2-.11,1.48,1.48,0,0,0-.27-.1Z"/><path class="d" d="M336.41,284.84a4.56,4.56,0,0,0,.68-.62l.42-.42a12.79,12.79,0,0,1,4.84-2.93,3.92,3.92,0,0,1,4.47,1,1.57,1.57,0,0,0,.86.56,1.87,1.87,0,0,0,1-.19c1.71-.61,3.44-1.2,5.21-1.78a3,3,0,0,0,.45-.12,2.13,2.13,0,0,1,.71-.13.64.64,0,0,1,.58.38.43.43,0,0,1,0,.58,1.67,1.67,0,0,1-.58.29l-4,1.4-1.91.66a3.25,3.25,0,0,0-2.15,2,13.57,13.57,0,0,1-3.93,5.21,4.6,4.6,0,0,1-1.34.83,2.41,2.41,0,0,1-1.72-.08,1.19,1.19,0,0,1-.68-1.12,2.86,2.86,0,0,1,.6-1.7,17.19,17.19,0,0,1,4.84-4.38l.25-.17a2,2,0,0,0,.74-.58c.17-.22.12-.51-.12-.87a2.11,2.11,0,0,0-2.4-.62,9.47,9.47,0,0,0-4,2.2L338,285.38c-.33.33-.66.64-1,.95a3.46,3.46,0,0,1-1,.7,1.76,1.76,0,0,1-1.35,0,1.16,1.16,0,0,1-.72-.79,2.54,2.54,0,0,1,0-1v0c.05-.44.12-.88.2-1.33a2.57,2.57,0,0,0,.09-.29,3.86,3.86,0,0,1,.12-.57,6.84,6.84,0,0,0,.23-1.18,3.21,3.21,0,0,0-.19-1.35.66.66,0,0,1,.23-.66,4.72,4.72,0,0,1,.81-.58,3.74,3.74,0,0,0,1.24-1.12,63.77,63.77,0,0,1,7.77-10.54,111.12,111.12,0,0,1,9.69-9.44,35.72,35.72,0,0,1,3.64-2.64,6.55,6.55,0,0,1,2.11-.91c1.48-.34,2.2.16,2.15,1.48a5,5,0,0,1-.83,1.87,35.45,35.45,0,0,1-4.51,5.42q-4.19,4.21-8.63,8.23a88.14,88.14,0,0,1-9.57,7.49,5.22,5.22,0,0,0-1.84,2.13,11.65,11.65,0,0,0-.85,2.62c-.14.47-.28.95-.41,1.45A2.62,2.62,0,0,0,336.41,284.84Zm6-10.39a2.47,2.47,0,0,1,.29-.24A154.87,154.87,0,0,0,357,260.76a22.77,22.77,0,0,0,2.82-3.72l.12-.13a1.57,1.57,0,0,0,.15-.29.41.41,0,0,0-.05-.35,1.15,1.15,0,0,0-.47-.39,63.39,63.39,0,0,0-10.9,9.25A100,100,0,0,0,340,275.86,5.64,5.64,0,0,0,342.43,274.45ZM343.67,287a9.38,9.38,0,0,0-1.51,1.22,3.6,3.6,0,0,0-.93,1.8,9,9,0,0,0,1.95-1.47,5.51,5.51,0,0,0,1-1.92A5.35,5.35,0,0,0,343.67,287Z"/><path class="d" d="M341,292a3.18,3.18,0,0,1-1.15-.23,1.55,1.55,0,0,1-.9-1.42,3.21,3.21,0,0,1,.66-1.9,17.63,17.63,0,0,1,4.94-4.48l.24-.16a1.75,1.75,0,0,0,.66-.5c.08-.11,0-.32-.13-.47a1.74,1.74,0,0,0-2-.49,8.93,8.93,0,0,0-3.87,2.11l-1.25,1.16c-.32.33-.66.65-1,1a3.66,3.66,0,0,1-1.11.76,2.09,2.09,0,0,1-1.59,0,1.5,1.5,0,0,1-.94-1,3,3,0,0,1,0-1.12c.06-.47.13-.92.21-1.37,0-.12.06-.2.09-.31a4,4,0,0,1,.13-.59,6.92,6.92,0,0,0,.21-1.12,2.83,2.83,0,0,0-.17-1.2,1,1,0,0,1,.32-1,4.25,4.25,0,0,1,.87-.62,3.61,3.61,0,0,0,1.13-1,64,64,0,0,1,7.8-10.58,114.49,114.49,0,0,1,9.71-9.46,38.54,38.54,0,0,1,3.68-2.68,7.28,7.28,0,0,1,2.21-1,2.24,2.24,0,0,1,2,.25,1.88,1.88,0,0,1,.55,1.58,5.29,5.29,0,0,1-.9,2,35,35,0,0,1-4.54,5.47c-2.78,2.8-5.69,5.57-8.64,8.24a88.87,88.87,0,0,1-9.61,7.52,5,5,0,0,0-1.73,2,11.89,11.89,0,0,0-.82,2.55c-.09.31-.17.61-.26.91a1.74,1.74,0,0,0,.41-.21h0a3.91,3.91,0,0,0,.63-.58l.43-.43a13.3,13.3,0,0,1,5-3,4.25,4.25,0,0,1,4.82,1.08,1.3,1.3,0,0,0,.67.45,1.45,1.45,0,0,0,.81-.16c1.73-.61,3.49-1.21,5.24-1.79a3.09,3.09,0,0,0,.46-.12,2.12,2.12,0,0,1,.81-.14,1,1,0,0,1,.87.54.74.74,0,0,1-.12,1,1.64,1.64,0,0,1-.71.35l-5.85,2.06a2.91,2.91,0,0,0-1.94,1.79,13.87,13.87,0,0,1-4,5.35,4.9,4.9,0,0,1-1.44.88A2.16,2.16,0,0,1,341,292Zm3-10.45a2.27,2.27,0,0,1,1.81.88c.45.63.32,1.05.14,1.29a2.39,2.39,0,0,1-.86.67l-.22.15a17.15,17.15,0,0,0-4.75,4.3,2.58,2.58,0,0,0-.53,1.49.84.84,0,0,0,.49.82,2,2,0,0,0,1.44.08,4.4,4.4,0,0,0,1.25-.77,13.13,13.13,0,0,0,3.84-5.09,3.56,3.56,0,0,1,2.36-2.18l5.86-2.06a1.34,1.34,0,0,0,.48-.23s0-.06,0-.16-.19-.2-.28-.2a1.67,1.67,0,0,0-.59.11,4.26,4.26,0,0,1-.51.13c-1.71.57-3.46,1.17-5.16,1.77a2.21,2.21,0,0,1-1.16.2,1.87,1.87,0,0,1-1.06-.66,3.58,3.58,0,0,0-4.11-.9,12.63,12.63,0,0,0-4.72,2.85l-.41.42a4.63,4.63,0,0,1-.72.65,2.82,2.82,0,0,1-1.24.47l-.52.1.14-.52c.14-.5.28-1,.41-1.45a12.46,12.46,0,0,1,.87-2.67,5.73,5.73,0,0,1,2-2.27,87.67,87.67,0,0,0,9.55-7.46c2.94-2.66,5.84-5.42,8.61-8.22a34.81,34.81,0,0,0,4.47-5.37,4.68,4.68,0,0,0,.78-1.74,1.24,1.24,0,0,0-.31-1,1.72,1.72,0,0,0-1.44-.1,6.62,6.62,0,0,0-2,.86,36.27,36.27,0,0,0-3.61,2.62,113,113,0,0,0-9.64,9.4,62.72,62.72,0,0,0-7.74,10.5,4.14,4.14,0,0,1-1.36,1.23,4,4,0,0,0-.75.54.32.32,0,0,0-.13.34,3.44,3.44,0,0,1,.19,1.45,7.52,7.52,0,0,1-.23,1.24c-.05.18-.09.36-.12.53a2.45,2.45,0,0,1-.09.35c-.08.39-.14.83-.2,1.26a2.56,2.56,0,0,0,0,.92.82.82,0,0,0,.53.55,1.43,1.43,0,0,0,1.07,0,3.1,3.1,0,0,0,.91-.63c.34-.31.67-.63,1-.95L339,284a9.67,9.67,0,0,1,4.16-2.27A3.11,3.11,0,0,1,344.06,281.55Zm-3.33,9.16.17-.77a3.92,3.92,0,0,1,1-2,9.86,9.86,0,0,1,1.55-1.25q.25-.21.51-.39l.81-.53-.3.92a5.74,5.74,0,0,1-1.06,2,10,10,0,0,1-2,1.53Zm2.69-3.13a7.8,7.8,0,0,0-1,.87,2.85,2.85,0,0,0-.53.74,5.66,5.66,0,0,0,1.05-.88A3.58,3.58,0,0,0,343.42,287.58Zm-4.31-11.12.56-.79a102.07,102.07,0,0,1,8.78-10.78,64.42,64.42,0,0,1,11-9.29l.17-.12.18.1a1.5,1.5,0,0,1,.61.53.7.7,0,0,1,.06.63,2,2,0,0,1-.18.36l-.13.14a23.26,23.26,0,0,1-2.84,3.75,156.83,156.83,0,0,1-14.34,13.48,2.3,2.3,0,0,0-.27.22,6,6,0,0,1-2.63,1.49Zm20.5-20.18a63.27,63.27,0,0,0-10.67,9.08,101.31,101.31,0,0,0-8.06,9.78,4.69,4.69,0,0,0,1.31-.93h0c.1-.09.2-.18.33-.28a155.08,155.08,0,0,0,14.27-13.4,22.8,22.8,0,0,0,2.77-3.67l.05-.06.12-.13s0-.08.07-.16,0-.06,0-.07A.48.48,0,0,0,359.61,256.28Z"/><path class="d" d="M355.75,285.77a4.66,4.66,0,0,0,.69-.62l.41-.42a13,13,0,0,1,4.84-2.94,3.94,3.94,0,0,1,4.47,1,1.61,1.61,0,0,0,.87.56,1.85,1.85,0,0,0,1-.19q2.57-.92,5.21-1.78l.46-.12a1.82,1.82,0,0,1,.7-.13.65.65,0,0,1,.58.37c.14.25.12.45,0,.58a1.38,1.38,0,0,1-.58.29l-4,1.41-1.91.66a3.25,3.25,0,0,0-2.15,2,13.37,13.37,0,0,1-3.93,5.21,4.82,4.82,0,0,1-1.34.83,2.36,2.36,0,0,1-1.72-.09,1.18,1.18,0,0,1-.68-1.11,3,3,0,0,1,.6-1.7,17.19,17.19,0,0,1,4.84-4.38l.25-.17a2,2,0,0,0,.74-.58q.26-.33-.12-.87a2.11,2.11,0,0,0-2.4-.62,9.27,9.27,0,0,0-4,2.2l-1.25,1.15-1,1a3.46,3.46,0,0,1-1,.7,1.81,1.81,0,0,1-1.35,0,1.18,1.18,0,0,1-.72-.79,2.54,2.54,0,0,1,0-1v0c.05-.44.12-.89.21-1.33l.08-.29c0-.19.07-.38.12-.58a6.55,6.55,0,0,0,.23-1.17,3.21,3.21,0,0,0-.19-1.35.68.68,0,0,1,.23-.66,4.72,4.72,0,0,1,.81-.58,3.75,3.75,0,0,0,1.24-1.12,64.33,64.33,0,0,1,7.78-10.55A112.35,112.35,0,0,1,373.4,259a35.79,35.79,0,0,1,3.64-2.65,7,7,0,0,1,2.11-.91c1.49-.33,2.2.17,2.15,1.49a4.87,4.87,0,0,1-.83,1.86,34.51,34.51,0,0,1-4.51,5.42q-4.17,4.23-8.62,8.24a87.92,87.92,0,0,1-9.58,7.48,5.35,5.35,0,0,0-1.84,2.13,12.27,12.27,0,0,0-.85,2.63c-.14.47-.27.95-.41,1.45A2.56,2.56,0,0,0,355.75,285.77Zm6-10.39.29-.25a154.9,154.9,0,0,0,14.32-13.44,23.29,23.29,0,0,0,2.81-3.72l.12-.13a1.13,1.13,0,0,0,.15-.29.44.44,0,0,0,0-.35,1.28,1.28,0,0,0-.48-.39,64.17,64.17,0,0,0-10.9,9.24,101.11,101.11,0,0,0-8.75,10.74A5.64,5.64,0,0,0,361.77,275.38ZM363,287.92a9.38,9.38,0,0,0-1.51,1.22,3.6,3.6,0,0,0-.93,1.8,9,9,0,0,0,1.95-1.47,5.48,5.48,0,0,0,1-1.93C363.34,287.66,363.18,287.78,363,287.92Z"/><path class="d" d="M360.37,292.93a3.41,3.41,0,0,1-1.16-.23,1.55,1.55,0,0,1-.9-1.42,3.33,3.33,0,0,1,.66-1.9,17.76,17.76,0,0,1,4.94-4.48l.24-.16a1.75,1.75,0,0,0,.66-.5c.09-.11,0-.32-.13-.47a1.75,1.75,0,0,0-2-.49,8.91,8.91,0,0,0-3.88,2.11l-1.24,1.16c-.33.33-.67.65-1,.95a3.64,3.64,0,0,1-1.1.77,2.07,2.07,0,0,1-1.6,0,1.48,1.48,0,0,1-.94-1,2.82,2.82,0,0,1,0-1.12c.05-.47.12-.92.2-1.37a2.54,2.54,0,0,0,.09-.31,4,4,0,0,1,.13-.59,6.92,6.92,0,0,0,.21-1.12,2.83,2.83,0,0,0-.17-1.2,1,1,0,0,1,.32-1,4.89,4.89,0,0,1,.87-.62,3.4,3.4,0,0,0,1.13-1,64.59,64.59,0,0,1,7.81-10.58,111.58,111.58,0,0,1,9.71-9.46,36.16,36.16,0,0,1,3.68-2.68,7.08,7.08,0,0,1,2.21-1,2.25,2.25,0,0,1,2,.24,1.87,1.87,0,0,1,.55,1.59,5.27,5.27,0,0,1-.89,2,35.51,35.51,0,0,1-4.55,5.47c-2.78,2.8-5.68,5.57-8.64,8.24a87.56,87.56,0,0,1-9.61,7.51,5,5,0,0,0-1.72,2,12.09,12.09,0,0,0-.83,2.55l-.26.91a1.45,1.45,0,0,0,.41-.22h0a3.86,3.86,0,0,0,.63-.57l.43-.43a13.32,13.32,0,0,1,5-3,4.25,4.25,0,0,1,4.82,1.09,1.29,1.29,0,0,0,.68.45,1.58,1.58,0,0,0,.81-.16c1.75-.62,3.51-1.22,5.24-1.79l.45-.12a2.16,2.16,0,0,1,.81-.15,1,1,0,0,1,.87.55.73.73,0,0,1-.12,1,1.77,1.77,0,0,1-.71.36l-5.84,2.06a2.89,2.89,0,0,0-1.95,1.78,13.88,13.88,0,0,1-4,5.36,4.9,4.9,0,0,1-1.44.88A2.15,2.15,0,0,1,360.37,292.93Zm3-10.45a2.32,2.32,0,0,1,1.82.87c.44.64.31,1.06.13,1.29a2.24,2.24,0,0,1-.86.68l-.21.15a17.19,17.19,0,0,0-4.76,4.3,2.65,2.65,0,0,0-.53,1.49.85.85,0,0,0,.49.82,2,2,0,0,0,1.44.07,4,4,0,0,0,1.25-.77A13.17,13.17,0,0,0,366,286.3a3.56,3.56,0,0,1,2.36-2.18l5.87-2.07a1.09,1.09,0,0,0,.47-.23s0-.05,0-.15-.19-.2-.28-.2a1.92,1.92,0,0,0-.59.1,3.23,3.23,0,0,1-.5.14c-1.69.56-3.44,1.16-5.17,1.77a2.18,2.18,0,0,1-1.15.2,1.86,1.86,0,0,1-1.07-.66,3.58,3.58,0,0,0-4.11-.91,12.66,12.66,0,0,0-4.71,2.86l-.41.41a4.72,4.72,0,0,1-.73.66h0a2.9,2.9,0,0,1-1.23.47l-.53.1.14-.52c.14-.5.28-1,.42-1.45a12.71,12.71,0,0,1,.86-2.68,5.78,5.78,0,0,1,1.95-2.26,87.67,87.67,0,0,0,9.55-7.46c2.94-2.66,5.84-5.43,8.61-8.22a34.81,34.81,0,0,0,4.47-5.37,4.65,4.65,0,0,0,.78-1.75,1.23,1.23,0,0,0-.31-1,1.74,1.74,0,0,0-1.44-.11,6.78,6.78,0,0,0-2,.87,36.27,36.27,0,0,0-3.61,2.62,111.47,111.47,0,0,0-9.64,9.4,63.62,63.62,0,0,0-7.74,10.49,4,4,0,0,1-1.36,1.24,4,4,0,0,0-.75.54.33.33,0,0,0-.13.34,3.42,3.42,0,0,1,.2,1.45A8.49,8.49,0,0,1,354,284a5,5,0,0,0-.12.53,2.87,2.87,0,0,1-.09.35c-.07.39-.14.82-.2,1.26a2.81,2.81,0,0,0,0,.92.85.85,0,0,0,.54.55,1.4,1.4,0,0,0,1.06,0,3.1,3.1,0,0,0,.91-.63c.34-.31.67-.63,1-1l1.25-1.16a9.58,9.58,0,0,1,4.15-2.27A3.21,3.21,0,0,1,363.4,282.48Zm-3.33,9.16.17-.78a4,4,0,0,1,1-2,9.92,9.92,0,0,1,1.55-1.26c.17-.14.34-.26.51-.38l.81-.53-.3.92a5.45,5.45,0,0,1-1.06,2,9.62,9.62,0,0,1-2,1.54Zm2.69-3.13a8.38,8.38,0,0,0-1,.87,2.85,2.85,0,0,0-.53.74,6.14,6.14,0,0,0,1.06-.88A4,4,0,0,0,362.76,288.51Zm-4.31-11.12.56-.8a103,103,0,0,1,8.78-10.77,64.42,64.42,0,0,1,11-9.29l.17-.12.18.1a1.43,1.43,0,0,1,.61.53.7.7,0,0,1,.06.63,1.51,1.51,0,0,1-.18.36l-.13.14a23.26,23.26,0,0,1-2.84,3.75,154.09,154.09,0,0,1-14.34,13.47c-.11.09-.2.16-.27.23a6.12,6.12,0,0,1-2.62,1.49ZM379,257.21a63.21,63.21,0,0,0-10.66,9.07,102.5,102.5,0,0,0-8.07,9.79,4.69,4.69,0,0,0,1.31-.93c.1-.09.2-.18.33-.28a155.08,155.08,0,0,0,14.27-13.4,23.24,23.24,0,0,0,2.77-3.67l.05-.06.12-.13s0-.08.07-.17,0,0,0-.07A.69.69,0,0,0,379,257.21Z"/><path class="d" d="M381.31,286.43c.72-.58,1.81-1.42,3.27-2.53s2.71-2,3.73-2.64c.44-.31.73-.44.86-.42s.44.27.48.4a.45.45,0,0,1-.08.39l-.31.41a.45.45,0,0,0-.17.17c-1.18,1-2.65,2.05-4.38,3.27a23.35,23.35,0,0,0-3.73,3,4.65,4.65,0,0,0-1.24,2.83,5.16,5.16,0,0,1-1.28,2.57l-.25.33a47.27,47.27,0,0,1-6.95,7.53,9.32,9.32,0,0,1-2.27,1.57,3.39,3.39,0,0,1-1.06.39,2.48,2.48,0,0,1-1.22-.1c-.44-.17-.7-.38-.78-.62a1.19,1.19,0,0,1,0-.79,8.79,8.79,0,0,1,1.61-2.9,45.39,45.39,0,0,1,4.76-5l.41-.37q2.35-2.23,4.92-4.35a2.06,2.06,0,0,0,.79-2.48,10.13,10.13,0,0,0-2.65-3.64c-.25-.22-.5-.45-.74-.7-.56-.53-1.08-1.06-1.58-1.62a2.37,2.37,0,0,1,.21-3.68,15.64,15.64,0,0,1,4.92-2.89,4.53,4.53,0,0,1,1.87-.38,2.27,2.27,0,0,1,.72.11.55.55,0,0,1,.39.39.26.26,0,0,1-.18.31,2.19,2.19,0,0,1-.6.15,8.92,8.92,0,0,0-3.73,1.22,13.3,13.3,0,0,0-2.52,2.08,1.38,1.38,0,0,0,0,2,10.8,10.8,0,0,0,1.28,1.37,14.74,14.74,0,0,1,4.26,5.54Zm-4.3,5.42c-.47.38-.92.77-1.36,1.16l-.42.41a43.6,43.6,0,0,0-6.82,7.16,1.54,1.54,0,0,1-.21.29,3.41,3.41,0,0,0-.45.74.9.9,0,0,0,.08.83,21.42,21.42,0,0,0,5.79-4.86,17,17,0,0,0,4-6.27A7.15,7.15,0,0,0,377,291.85Z"/><path class="d" d="M367.55,304.11a3.23,3.23,0,0,1-.94-.15,1.48,1.48,0,0,1-1-.84,1.67,1.67,0,0,1,0-1,9.39,9.39,0,0,1,1.68-3,45.1,45.1,0,0,1,4.79-5c.14-.12.27-.23.4-.36,1.58-1.5,3.25-3,4.95-4.37a1.72,1.72,0,0,0,.68-2.1,9.72,9.72,0,0,0-2.56-3.51c-.25-.22-.5-.46-.75-.71-.55-.52-1.09-1.07-1.59-1.63a2.71,2.71,0,0,1,.23-4.15,16.1,16.1,0,0,1,5-3,4.84,4.84,0,0,1,2-.39,2.68,2.68,0,0,1,.83.12.89.89,0,0,1,.61.62.61.61,0,0,1-.37.71,2.47,2.47,0,0,1-.71.17,8.63,8.63,0,0,0-3.57,1.17,12.74,12.74,0,0,0-2.46,2,1,1,0,0,0,.05,1.54,8.63,8.63,0,0,0,1.25,1.33,15.19,15.19,0,0,1,4.16,5.26l.86-.68c.72-.58,1.82-1.43,3.28-2.53s2.72-2,3.74-2.66c.55-.37.87-.51,1.12-.46l.09,0c.36.19.57.37.64.59a.76.76,0,0,1-.13.69,4.35,4.35,0,0,1-.32.43l-.07.07a.16.16,0,0,0-.06.05l-.08.1c-1.19,1-2.67,2.07-4.41,3.28a23.56,23.56,0,0,0-3.67,3,4.24,4.24,0,0,0-1.15,2.63,5.6,5.6,0,0,1-1.36,2.76l-.24.31a47.42,47.42,0,0,1-7,7.58,9.49,9.49,0,0,1-2.35,1.62,3.45,3.45,0,0,1-1.15.42A2.12,2.12,0,0,1,367.55,304.11Zm12.9-29.55a4.34,4.34,0,0,0-1.73.34,15.53,15.53,0,0,0-4.83,2.84,2,2,0,0,0-.18,3.21c.48.54,1,1.08,1.55,1.59.25.25.49.48.74.7a10.53,10.53,0,0,1,2.73,3.76,2.38,2.38,0,0,1-.88,2.87c-1.69,1.39-3.34,2.85-4.91,4.33a5.06,5.06,0,0,1-.43.39,44.64,44.64,0,0,0-4.71,5,8.55,8.55,0,0,0-1.55,2.78,1,1,0,0,0,0,.58c0,.08.13.24.58.41a2.23,2.23,0,0,0,1,.09,3,3,0,0,0,.95-.35,9.39,9.39,0,0,0,2.21-1.53,46.7,46.7,0,0,0,6.91-7.48l.25-.34a4.86,4.86,0,0,0,1.22-2.41,4.94,4.94,0,0,1,1.32-3,24,24,0,0,1,3.78-3.09c1.71-1.19,3.16-2.27,4.32-3.22a1.13,1.13,0,0,1,.19-.19,2.42,2.42,0,0,0,.27-.36.16.16,0,0,0,0-.09h0a.89.89,0,0,0-.23-.16,4,4,0,0,0-.6.35c-1,.67-2.27,1.55-3.71,2.64s-2.55,1.95-3.26,2.52h0c-.36.27-.75.59-1.19.94l-.34.28-.18-.4a14.57,14.57,0,0,0-4.17-5.42,10.36,10.36,0,0,1-1.34-1.42,1.7,1.7,0,0,1,0-2.42,13.34,13.34,0,0,1,2.59-2.15,9.35,9.35,0,0,1,3.86-1.27,2,2,0,0,0,.47-.1.22.22,0,0,0-.14-.09A1.87,1.87,0,0,0,380.45,274.56Zm-12.76,28.33-.16-.29a1.22,1.22,0,0,1-.09-1.13,3.89,3.89,0,0,1,.49-.81.74.74,0,0,0,.17-.23,44.17,44.17,0,0,1,6.92-7.27l.39-.39c.45-.4.91-.79,1.37-1.17.2-.2.4-.38.59-.55l.84-.72-.29,1.07a17.25,17.25,0,0,1-4.05,6.4,21.61,21.61,0,0,1-5.89,4.94Zm9.12-10.43c-.32.26-.63.53-.94.8l-.4.4a43.55,43.55,0,0,0-6.79,7.12,1.07,1.07,0,0,1-.24.32,3.61,3.61,0,0,0-.39.65.43.43,0,0,0,0,.2,22.26,22.26,0,0,0,5.35-4.6A20.3,20.3,0,0,0,376.81,292.46Z"/></svg>